<svg xmlns="http://www.w3.org/2000/svg" xmlns:xlink="http://www.w3.org/1999/xlink" width="455px" height="447px" viewBox="0 0 429.03 440.62"><defs><style>.cls-1{isolation:isolate;}.cls-2{fill:url(#linear-gradient);}.cls-3{fill:#393939;}.cls-3,.cls-6,.cls-8{mix-blend-mode:color;}.cls-4{opacity:0.25;}.cls-5{fill:url(#linear-gradient-2);}.cls-6{fill:#27a6ca;}.cls-7{fill:url(#linear-gradient-3);}.cls-8{fill:#09407b;}</style><linearGradient id="linear-gradient" x1="44.47" y1="223.99" x2="406.62" y2="392.87" gradientUnits="userSpaceOnUse"><stop offset="0" stop-color="#737372"/><stop offset="0.05" stop-color="#969695"/><stop offset="0.09" stop-color="#afafae"/><stop offset="0.13" stop-color="#bebebe"/><stop offset="0.16" stop-color="#c3c3c3"/><stop offset="0.32" stop-color="#999"/><stop offset="0.65" stop-color="#474747"/><stop offset="0.89" stop-color="#141414"/><stop offset="1"/></linearGradient><linearGradient id="linear-gradient-2" x1="87.73" y1="152.82" x2="361.92" y2="269.2" xlink:href="#linear-gradient"/><linearGradient id="linear-gradient-3" x1="143.85" y1="64.78" x2="312.42" y2="139.83" xlink:href="#linear-gradient"/></defs><g class="cls-1"><g id="Layer_2" data-name="Layer 2"><g id="Layer_1-2" data-name="Layer 1"><path class="cls-2" d="M422.27,305A59.4,59.4,0,0,1,429,332.08c0,59.95-96,108.54-214.52,108.54S0,392,0,332.08a59.17,59.17,0,0,1,6.34-26.29l56.6-93.36c19.86-32.82,80.21-56.69,151.57-56.69,71.67,0,132.22,24.07,151.83,57.1Z"/><path class="cls-3" d="M422.27,305A59.4,59.4,0,0,1,429,332.08c0,59.95-96,108.54-214.52,108.54S0,392,0,332.08a59.17,59.17,0,0,1,6.34-26.29l56.6-93.36c19.86-32.82,80.21-56.69,151.57-56.69,71.67,0,132.22,24.07,151.83,57.1Z"/><g class="cls-4"><path class="cls-5" d="M61.4,215.56A40.28,40.28,0,0,0,56,235.31c0,42.07,71,76.17,158.5,76.17S373,277.38,373,235.31a40.26,40.26,0,0,0-5.38-19.75l-51.34-83.75C306.6,110,264.72,93.52,214.51,93.52c-50.84,0-93.16,16.86-102.13,39.13Z"/><path class="cls-6" d="M61.4,215.56A40.28,40.28,0,0,0,56,235.31c0,42.07,71,76.17,158.5,76.17S373,277.38,373,235.31a40.26,40.26,0,0,0-5.38-19.75l-51.34-83.75C306.6,110,264.72,93.52,214.51,93.52c-50.84,0-93.16,16.86-102.13,39.13Z"/></g><g class="cls-4"><path class="cls-7" d="M311.3,123.52c-.07-.18-.12-.35-.19-.53L248.19,19c-15.33-25.29-52-25.29-67.35,0l-63,104.23-.11.32a30.5,30.5,0,0,0-2.16,9.28c0,25.23,44.3,45.68,98.94,45.68S313.46,158,313.46,132.8A30.5,30.5,0,0,0,311.3,123.52Z"/><path class="cls-8" d="M311.3,123.52c-.07-.18-.12-.35-.19-.53L248.19,19c-15.33-25.29-52-25.29-67.35,0l-63,104.23-.11.32a30.5,30.5,0,0,0-2.16,9.28c0,25.23,44.3,45.68,98.94,45.68S313.46,158,313.46,132.8A30.5,30.5,0,0,0,311.3,123.52Z"/></g></g></g></g></svg>