<svg xmlns="http://www.w3.org/2000/svg" xmlns:xlink="http://www.w3.org/1999/xlink" width="455px" height="447px" viewBox="0 0 429.03 440.62"><defs><style>.cls-1{isolation:isolate;}.cls-2{fill:url(#linear-gradient);}.cls-3{fill:#393939;}.cls-3,.cls-5,.cls-7{mix-blend-mode:color;}.cls-4{fill:url(#linear-gradient-2);}.cls-5{fill:#27a6ca;}.cls-6{fill:url(#linear-gradient-3);}.cls-7{fill:#09407b;}</style><linearGradient id="linear-gradient" y1="298.18" x2="429.03" y2="298.18" gradientUnits="userSpaceOnUse"><stop offset="0" stop-color="#e6e6e6"/><stop offset="0.13" stop-color="#b5b5b5"/><stop offset="0.3" stop-color="#7f7f7f"/><stop offset="0.46" stop-color="#515151"/><stop offset="0.62" stop-color="#2e2e2e"/><stop offset="0.76" stop-color="#151515"/><stop offset="0.89" stop-color="#050505"/><stop offset="1"/></linearGradient><linearGradient id="linear-gradient-2" x1="56.01" y1="202.5" x2="373.01" y2="202.5" gradientUnits="userSpaceOnUse"><stop offset="0" stop-color="#fff"/><stop offset="0.02" stop-color="#f7f7f7"/><stop offset="0.18" stop-color="#b6b6b6"/><stop offset="0.34" stop-color="#7f7f7f"/><stop offset="0.49" stop-color="#515151"/><stop offset="0.64" stop-color="#2e2e2e"/><stop offset="0.78" stop-color="#151515"/><stop offset="0.9" stop-color="#050505"/><stop offset="1"/></linearGradient><linearGradient id="linear-gradient-3" x1="115.57" y1="89.24" x2="313.46" y2="89.24" xlink:href="#linear-gradient-2"/></defs><title>Asset 1</title><g class="cls-1"><g id="Layer_2" data-name="Layer 2"><g id="Layer_1-2" data-name="Layer 1"><path class="cls-2" d="M422.27,305A59.4,59.4,0,0,1,429,332.08c0,59.95-96,108.54-214.52,108.54S0,392,0,332.08a59.17,59.17,0,0,1,6.34-26.29l56.6-93.36c19.86-32.82,80.21-56.69,151.57-56.69,71.67,0,132.22,24.07,151.83,57.1Z"/><path class="cls-3" d="M422.27,305A59.4,59.4,0,0,1,429,332.08c0,59.95-96,108.54-214.52,108.54S0,392,0,332.08a59.17,59.17,0,0,1,6.34-26.29l56.6-93.36c19.86-32.82,80.21-56.69,151.57-56.69,71.67,0,132.22,24.07,151.83,57.1Z"/><path class="cls-4" d="M61.4,215.56A40.28,40.28,0,0,0,56,235.31c0,42.07,71,76.17,158.5,76.17S373,277.38,373,235.31a40.26,40.26,0,0,0-5.38-19.75l-51.34-83.75C306.6,110,264.72,93.52,214.51,93.52c-50.84,0-93.16,16.86-102.13,39.13Z"/><path class="cls-5" d="M61.4,215.56A40.28,40.28,0,0,0,56,235.31c0,42.07,71,76.17,158.5,76.17S373,277.38,373,235.31a40.26,40.26,0,0,0-5.38-19.75l-51.34-83.75C306.6,110,264.72,93.52,214.51,93.52c-50.84,0-93.16,16.86-102.13,39.13Z"/><path class="cls-6" d="M311.3,123.52c-.07-.18-.12-.35-.19-.53L248.19,19c-15.33-25.29-52-25.29-67.35,0l-63,104.23-.11.32a30.5,30.5,0,0,0-2.16,9.28c0,25.23,44.3,45.68,98.94,45.68S313.46,158,313.46,132.8A30.5,30.5,0,0,0,311.3,123.52Z"/><path class="cls-7" d="M311.3,123.52c-.07-.18-.12-.35-.19-.53L248.19,19c-15.33-25.29-52-25.29-67.35,0l-63,104.23-.11.32a30.5,30.5,0,0,0-2.16,9.28c0,25.23,44.3,45.68,98.94,45.68S313.46,158,313.46,132.8A30.5,30.5,0,0,0,311.3,123.52Z"/></g></g></g></svg>