<?xml version="1.0" encoding="windows-1252"?>
<!-- Generator: Adobe Illustrator 23.1.0, SVG Export Plug-In . SVG Version: 6.00 Build 0)  -->
<svg version="1.1" id="Layer_1" xmlns="http://www.w3.org/2000/svg" xmlns:xlink="http://www.w3.org/1999/xlink" x="0px" y="0px" viewBox="0 0 1132 352" style="enable-background:new 0 0 1132 352;" xml:space="preserve">
<g>
	
		<linearGradient id="SVGID_1_" gradientUnits="userSpaceOnUse" x1="-28.3427" y1="672.953" x2="-27.3424" y2="672.953" gradientTransform="matrix(0 599.4938 599.4938 0 -402581.8125 16743.6035)">
		<stop offset="0" style="stop-color:#FFFFFF"/>
		<stop offset="0.5" style="stop-color:#FFFFFF"/>
		<stop offset="0.9117" style="stop-color:#E6E5E5"/>
		<stop offset="1" style="stop-color:#E6E5E5"/>
	</linearGradient>
	<path style="fill:url(#SVGID_1_);" d="M566.665,351.985c213.55-0.5,409.745-15.741,565.335-40.971V0H566.665V351.985z"/>
	
		<linearGradient id="SVGID_2_" gradientUnits="userSpaceOnUse" x1="-28.3426" y1="672.9638" x2="-27.3424" y2="672.9638" gradientTransform="matrix(0 599.5043 599.5043 0 -403161.3438 16743.8965)">
		<stop offset="0" style="stop-color:#FFFFFF"/>
		<stop offset="0.5" style="stop-color:#FFFFFF"/>
		<stop offset="0.9117" style="stop-color:#E6E5E5"/>
		<stop offset="1" style="stop-color:#E6E5E5"/>
	</linearGradient>
	<path style="fill:url(#SVGID_2_);" d="M565.335,0H0v12.268v300.884C156.059,337.522,351.142,352,562.793,352   c1.292,0,2.581-0.003,3.872-0.003v-0.012c-0.444,0.001-0.887,0.003-1.331,0.004V0z"/>
	
		<linearGradient id="SVGID_3_" gradientUnits="userSpaceOnUse" x1="-28.3427" y1="672.4804" x2="-27.3424" y2="672.4804" gradientTransform="matrix(0 599.4938 599.4938 0 -402581.8125 16743.6035)">
		<stop offset="0" style="stop-color:#FFFFFF"/>
		<stop offset="0.5" style="stop-color:#FFFFFF"/>
		<stop offset="0.9117" style="stop-color:#E6E5E5"/>
		<stop offset="1" style="stop-color:#E6E5E5"/>
	</linearGradient>
	<path style="fill:url(#SVGID_3_);" d="M565.335,0v351.989c0.444-0.001,0.887-0.003,1.331-0.004V0H565.335z"/>
	
		<linearGradient id="SVGID_4_" gradientUnits="userSpaceOnUse" x1="-28.3426" y1="673.4353" x2="-27.3424" y2="673.4353" gradientTransform="matrix(0 599.5043 599.5043 0 -403161.3438 16743.8965)">
		<stop offset="0" style="stop-color:#FFFFFF"/>
		<stop offset="0.5" style="stop-color:#FFFFFF"/>
		<stop offset="0.9117" style="stop-color:#E6E5E5"/>
		<stop offset="1" style="stop-color:#E6E5E5"/>
	</linearGradient>
	<path style="fill:url(#SVGID_4_);" d="M565.335,0v351.989c0.444-0.001,0.887-0.003,1.331-0.004V0H565.335z"/>
</g>
<g>
</g>
<g>
</g>
<g>
</g>
<g>
</g>
<g>
</g>
<g>
</g>
</svg>