<?xml version="1.0" encoding="utf-8"?>
<!-- Generator: Adobe Illustrator 23.0.3, SVG Export Plug-In . SVG Version: 6.00 Build 0)  -->
<svg version="1.1" id="Layer_1" xmlns="http://www.w3.org/2000/svg" xmlns:xlink="http://www.w3.org/1999/xlink" x="0px" y="0px"
	 viewBox="0 0 250 47" style="enable-background:new 0 0 250 47;" xml:space="preserve">
<g>
	<path style="fill:#FFFFFF;" d="M18.52,0.55c-4.13,0-7.2,1.87-9.39,4.66l-0.33-3c-0.07-0.6-0.4-1-1-1H1c-0.6,0-1,0.4-1,1v43.31
		c0,0.6,0.4,1,1,1h8c0.6,0,1-0.4,1-1V30.93c2,2.07,4.8,3.4,8.53,3.4c9.13,0,15.79-7.4,15.79-16.72C34.31,8.08,27.65,0.55,18.52,0.55
		z M17.32,25.2c-4.4,0-7.33-3.2-7.33-7.66c0-4.4,2.93-7.86,7.33-7.86c4.26,0,7.4,3.2,7.4,7.86C24.72,22.07,21.59,25.2,17.32,25.2z"
		/>
	<path style="fill:#FFFFFF;" d="M68.77,16.8c0-8.79-6.06-16.26-15.52-16.26c-9.53,0-16.59,7.46-16.59,16.86
		c0,9.39,7.06,16.92,17.32,16.92c4.73,0,8.99-1.87,12.13-5c0.53-0.53,0.53-1,0.13-1.47l-3.46-3.33c-0.47-0.47-0.87-0.53-1.47-0.13
		c-2.33,1.47-4.2,1.93-6.33,1.93c-4.46,0-7.4-1.87-8.39-5.4h19.79C68.44,20.93,68.77,19.54,68.77,16.8z M46.45,14.6
		c0.73-3.8,3.53-5.6,6.86-5.6c3.2,0,5.93,1.8,6.6,5.6H46.45z"/>
	<path style="fill:#FFFFFF;" d="M70.69,32.86V2.21c0-0.6,0.4-1,1-1h7.66c0.6,0,0.93,0.4,1,1l0.27,3.8c1.67-3.2,4.4-5.53,8.4-5.53
		c1.93,0,3.6,0.8,4.53,1.67c0.53,0.47,0.53,1,0.33,1.47l-2.2,5.73c-0.27,0.8-0.87,0.93-1.67,0.73c-0.67-0.2-1.47-0.53-2.73-0.53
		c-4.13,0-6.6,3.06-6.6,7.06v16.26c0,0.6-0.4,1-1,1h-8C71.09,33.86,70.69,33.46,70.69,32.86z"/>
	<path style="fill:#FFFFFF;" d="M91.08,17.34c0-9.33,7.33-16.79,16.72-16.79c5.06,0,9.53,2.27,12.59,5.8c0.4,0.47,0.33,1-0.07,1.4
		l-4.8,4.66c-0.47,0.47-0.93,0.4-1.47-0.07c-1.87-1.67-3.73-2.53-6-2.53c-4.33,0-7.4,3.33-7.4,7.53c0,4.33,3.06,7.73,7.4,7.73
		c2.4,0,4.33-0.93,6.2-2.53c0.53-0.47,1-0.47,1.47,0l4.8,4.6c0.4,0.4,0.47,0.93,0.07,1.4c-3.06,3.53-7.6,5.8-12.79,5.8
		C98.41,34.33,91.08,26.8,91.08,17.34z"/>
	<path style="fill:#FFFFFF;" d="M153.18,1.21h-6.8c-0.6,0-0.93,0.4-1,1l-0.33,3c-2.2-2.8-5.26-4.66-9.39-4.66
		c-9.13,0-15.79,7.53-15.79,17.06c0,9.33,6.66,16.72,15.79,16.72c4.26,0,7.26-1.73,9.33-4.26l0.4,2.8c0.07,0.6,0.4,1,1,1h6.8
		c0.6,0,1-0.4,1-1V2.21C154.18,1.61,153.78,1.21,153.18,1.21z M136.85,25.2c-4.26,0-7.4-3.13-7.4-7.66c0-4.66,3.13-7.86,7.4-7.86
		c4.4,0,7.33,3.46,7.33,7.86C144.18,22,141.25,25.2,136.85,25.2z"/>
	<path style="fill:#FFFFFF;" d="M156.74,2.35c-0.27-0.73,0.07-1.13,0.8-1.13h8.06c0.53,0,1,0.27,1.2,0.8l7.33,20.12l7.33-20.12
		c0.2-0.53,0.67-0.8,1.2-0.8h8.19c0.73,0,1.07,0.4,0.8,1.13l-17.26,43.37c-0.2,0.53-0.67,0.8-1.2,0.8h-7.8c-0.73,0-1.2-0.4-0.8-1.13
		l4.73-11.46L156.74,2.35z"/>
	<path style="fill:#FFFFFF;" d="M215.18,24.2c0,6.66-6.8,10.33-12.86,10.33c-5.66,0-10.19-2.73-12.53-5.46
		c-0.4-0.47-0.27-0.93,0-1.33l2.93-4.26c0.4-0.47,0.93-0.33,1.53,0c3,1.87,5.6,2.73,7.73,2.73c1.53,0,3.46-0.33,3.46-2.13
		c0-4.4-15.06-2.33-15.06-13.33c0-6.6,5.66-10.26,11.53-10.26c4.46,0,8.73,1.73,11.46,4.93c0.4,0.47,0.27,1-0.07,1.4l-3,3.93
		c-0.4,0.53-0.87,0.33-1.47-0.07c-2.53-1.47-3.93-2.27-5.93-2.27c-2,0-2.93,1.13-2.93,2.27C199.99,15.27,215.18,12.14,215.18,24.2z"
		/>
	<path style="fill:#FFFFFF;" d="M232.94,0.48c-9.39,0-16.99,7.53-16.99,17.06c0,9.46,7.6,16.99,16.99,16.99
		C242.4,34.53,250,27,250,17.54C250,8.01,242.4,0.48,232.94,0.48z M232.94,25.27c-4.06,0-7.4-3.26-7.4-7.73c0-4.53,3.33-7.8,7.4-7.8
		c4.13,0,7.4,3.26,7.4,7.8C240.34,22,237.07,25.27,232.94,25.27z"/>
</g>
</svg>
