<?xml version="1.0" encoding="UTF-8"?>
<svg width="178px" height="45px" viewBox="0 0 178 45" version="1.1" xmlns="http://www.w3.org/2000/svg" xmlns:xlink="http://www.w3.org/1999/xlink">
    <!-- Generator: Sketch 64 (93537) - https://sketch.com -->
    <title>Asset 1</title>
    <desc>Created with Sketch.</desc>
    <g id="Page-1" stroke="none" stroke-width="1" fill="none" fill-rule="evenodd">
        <g id="Community-V1" transform="translate(-314.000000, -5887.000000)" fill="#FFFFFF" fill-rule="nonzero">
            <g id="Asset-1" transform="translate(314.000000, 5887.000000)">
                <path d="M22.0735683,39.0423789 C22.1376165,40.4581399 21.6217892,41.8388368 20.645143,42.8657952 C19.6684967,43.8927535 18.3154292,44.4772278 16.8982379,44.4843172 C15.7251097,44.5348857 14.5960794,44.032772 13.8479295,43.1277533 L13.7146256,44.0373568 C13.7146256,44.124703 13.6799274,44.2084717 13.6181643,44.2702348 C13.5564012,44.3319979 13.4726325,44.366696 13.3852863,44.366696 L11.158326,44.366696 C11.070285,44.371489 10.9844594,44.3380494 10.9228685,44.2749562 C10.8612776,44.2118631 10.8299154,44.1252568 10.8368282,44.0373568 L10.8368282,28.8171806 C10.8299154,28.7292807 10.8612776,28.6426744 10.9228685,28.5795812 C10.9844594,28.5164881 11.070285,28.4830484 11.158326,28.4878414 L13.7773568,28.4878414 C13.8660214,28.4832854 13.9524635,28.5165179 14.0152415,28.579296 C14.0780195,28.642074 14.1112521,28.7285161 14.106696,28.8171806 L14.106696,34.6747137 C14.8280893,33.902379 15.8414802,33.4696953 16.8982379,33.4828194 C19.8936564,33.4828194 22.0735683,35.9371806 22.0735683,39.0423789 Z M18.9370044,39.0423789 C18.9880219,38.1481154 18.5399267,37.2990613 17.7728595,36.8365488 C17.0057923,36.3740362 16.0457495,36.3740362 15.2786823,36.8365488 C14.5116151,37.2990613 14.0635199,38.1481154 14.1145374,39.0423789 C14.0749352,39.6986153 14.3117496,40.3414822 14.7675989,40.815208 C15.2234482,41.2889337 15.8567349,41.5502896 16.5140088,41.5359471 C17.1783411,41.5553204 17.8198692,41.2927753 18.2800116,40.8132113 C18.7401541,40.3336472 18.9759684,39.6818191 18.929163,39.0188546 L18.9370044,39.0423789 Z" id="Shape"></path>
                <path d="M32.8084581,34.0238767 L32.8084581,44.0059912 C32.8153709,44.0938911 32.7840088,44.1804975 32.7224178,44.2435906 C32.6608269,44.3066837 32.5750013,44.3401234 32.4869604,44.3353304 L29.954185,44.3353304 C29.772296,44.3353304 29.6248458,44.1878802 29.6248458,44.0059912 L29.5385903,42.8611454 C28.8483289,43.929794 27.673861,44.587496 26.4020264,44.6176211 C24.0496035,44.6176211 22.316652,42.8768282 22.316652,40.0382379 L22.316652,34.0238767 C22.311859,33.9358357 22.3452986,33.8500101 22.4083918,33.7884192 C22.4714849,33.7268283 22.5580912,33.6954661 22.6459912,33.7023789 L25.265022,33.7023789 C25.352922,33.6954661 25.4395283,33.7268283 25.5026214,33.7884192 C25.5657146,33.8500101 25.5991542,33.9358357 25.5943612,34.0238767 L25.5943612,39.3874009 C25.6335683,41.1046696 26.660793,41.5594714 27.5076652,41.5594714 C28.0286135,41.5871778 28.5385714,41.4027012 28.9212266,41.0481172 C29.3038818,40.6935332 29.5266026,40.1990799 29.5385903,39.677533 L29.5385903,34.0238767 C29.5337973,33.9358357 29.567237,33.8500101 29.6303301,33.7884192 C29.6934233,33.7268283 29.7800296,33.6954661 29.8679295,33.7023789 L32.4869604,33.7023789 C32.5742387,33.6951676 32.6602702,33.726716 32.7221956,33.7886414 C32.784121,33.8505668 32.8156694,33.9365983 32.8084581,34.0238767 L32.8084581,34.0238767 Z" id="Path"></path>
                <path d="M41.6065198,41.1909251 C41.6065198,43.3551542 39.3795595,44.5548899 37.3956828,44.5548899 C35.8380174,44.5703645 34.3471374,43.9232713 33.2946256,42.7748899 C33.1862503,42.6485773 33.1862503,42.4620835 33.2946256,42.3357709 L34.2512775,40.9478414 C34.3845815,40.7988546 34.5570925,40.8380617 34.7531278,40.9478414 C35.4997509,41.47183 36.3757821,41.7810175 37.2859031,41.8417621 C37.7877533,41.8417621 38.4229075,41.7319824 38.4229075,41.1438767 C38.4229075,39.7088987 33.4906608,40.3597357 33.4906608,36.7997357 C33.4906608,34.6511894 35.3412335,33.4592952 37.2623789,33.4592952 C38.6821551,33.414923 40.0517382,33.986774 41.0184141,35.0275771 C41.1398941,35.1548417 41.1398941,35.3551142 41.0184141,35.4823789 L39.9911894,36.7997357 C39.8578855,36.9800881 39.7088987,36.9095154 39.5128634,36.7997357 C38.9527189,36.3827982 38.2874373,36.1302628 37.5917181,36.0704846 C36.9408811,36.0704846 36.6350661,36.4390308 36.6350661,36.8075771 C36.6350661,38.2817621 41.6065198,37.2623789 41.6065198,41.1909251 Z" id="Path"></path>
                <path d="M41.9828896,30.0953304 C41.9797366,29.3866567 42.4046111,28.7461445 43.0587384,28.4734801 C43.7128658,28.2008156 44.4668826,28.3499223 44.9679956,28.8510353 C45.4691086,29.3521483 45.6182152,30.1061651 45.3455508,30.7602924 C45.0728863,31.4144197 44.4323741,31.8392942 43.7237004,31.8361412 C43.2613738,31.8382201 42.8173771,31.655489 42.4904594,31.3285714 C42.1635418,31.0016538 41.9808107,30.557657 41.9828896,30.0953304 Z M42.414185,33.7023789 L45.0332159,33.7023789 C45.1211158,33.6954661 45.2077221,33.7268283 45.2708153,33.7884192 C45.3339084,33.8500101 45.3673481,33.9358357 45.3625551,34.0238767 L45.3625551,44.0059912 C45.3671111,44.0946558 45.3338785,44.1810978 45.2711005,44.2438758 C45.2083225,44.3066539 45.1218804,44.3398865 45.0332159,44.3353304 L42.414185,44.3353304 C42.3255205,44.3398865 42.2390784,44.3066539 42.1763004,44.2438758 C42.1135223,44.1810978 42.0802898,44.0946558 42.0848458,44.0059912 L42.0848458,34.0238767 C42.0845929,33.9385242 42.1200213,33.8569497 42.1825673,33.7988712 C42.2451133,33.7407928 42.3290851,33.7114957 42.414185,33.7180617 L42.414185,33.7023789 Z" id="Shape"></path>
                <path d="M56.7561233,38.0386784 L56.7561233,44.0059912 C56.7606794,44.0946558 56.7274468,44.1810978 56.6646688,44.2438758 C56.6018908,44.3066539 56.5154487,44.3398865 56.4267841,44.3353304 L53.8077533,44.3353304 C53.7190887,44.3398865 53.6326467,44.3066539 53.5698686,44.2438758 C53.5070906,44.1810978 53.473858,44.0946558 53.4784141,44.0059912 L53.4784141,38.6895154 C53.4784141,36.9800881 52.5217621,36.4782379 51.6513656,36.4782379 C50.5713558,36.519201 49.6857664,37.347979 49.5733921,38.4229075 L49.5733921,43.9981498 C49.5805761,44.0875055 49.5481924,44.1755136 49.4848045,44.2389015 C49.4214167,44.3022893 49.3334085,44.334673 49.2440529,44.327489 L46.625022,44.327489 C46.5369811,44.332282 46.4511555,44.2988423 46.3895646,44.2357492 C46.3279736,44.172656 46.2966114,44.0860497 46.3035242,43.9981498 L46.3035242,34.0238767 C46.296313,33.9365983 46.3278614,33.8505668 46.3897868,33.7886414 C46.4517121,33.726716 46.5377437,33.6951676 46.625022,33.7023789 L49.1577974,33.7023789 C49.2444143,33.7002656 49.3282175,33.7332024 49.3902168,33.7937255 C49.4522161,33.8542486 49.4871623,33.937234 49.4871366,34.0238767 L49.5733921,35.3725991 C50.242438,34.1842355 51.5030483,33.451881 52.8667841,33.4592394 C55.0310132,33.4592394 56.7561233,35.2000881 56.7561233,38.0386784 Z" id="Path"></path>
                <path d="M66.989163,40.1244934 L60.5121586,40.1244934 C60.8336564,41.2771806 61.7981498,41.8809692 63.256652,41.8809692 C63.9968603,41.8871661 64.7214961,41.6684081 65.3346256,41.2536564 C65.3956016,41.1857811 65.4825464,41.1470118 65.5737885,41.1470118 C65.6650307,41.1470118 65.7519755,41.1857811 65.8129515,41.2536564 L66.9499559,42.3436123 C67.0148347,42.4098771 67.0470638,42.5014556 67.0379859,42.5937479 C67.028908,42.6860402 66.9794537,42.7695842 66.9029075,42.8219383 C65.8485317,43.868701 64.4208736,44.4527429 62.9351542,44.4451101 C61.4433454,44.5097266 59.9905223,43.9585142 58.9170222,42.9205998 C57.8435222,41.8826854 57.2436652,40.4492623 57.2579736,38.9561233 C57.2259838,37.5003326 57.7864149,36.0939344 58.8108759,35.0591253 C59.8353369,34.0243162 61.2360317,33.4497791 62.6920705,33.4671366 C64.0800159,33.4569047 65.4109849,34.0183995 66.3722074,35.019673 C67.3334299,36.0209464 67.8401545,37.3737158 67.773304,38.7600881 C67.773304,39.6696916 67.6713656,40.1244934 66.989163,40.1244934 Z M60.4651101,38.0622026 L64.8719824,38.0622026 C64.7420305,36.9903258 63.8100792,36.198338 62.7312775,36.2429956 C61.6181532,36.1691174 60.6336615,36.959436 60.4651101,38.0622026 L60.4651101,38.0622026 Z" id="Shape"></path>
                <path d="M76.061674,41.1909251 C76.061674,43.3551542 73.8347137,44.5549947 71.8429956,44.5549947 C70.2865317,44.564459 68.7979433,43.9183604 67.7419383,42.7748899 C67.6367707,42.6474074 67.6367707,42.4632534 67.7419383,42.3357709 L68.7064317,40.9478414 C68.8318943,40.7988546 69.0122467,40.8380617 69.2082819,40.9478414 C69.9549051,41.47183 70.8309362,41.7810175 71.7410573,41.8417621 C72.2429075,41.8417621 72.8702203,41.7319824 72.8702203,41.1438767 C72.8702203,39.7088987 67.9379736,40.3597357 67.9379736,36.7997357 C67.9379736,34.6511894 69.7963877,33.4592952 71.717533,33.4592952 C73.1346048,33.4172085 74.500871,33.988868 75.4657269,35.0275771 C75.5872069,35.1548417 75.5872069,35.3551142 75.4657269,35.4823789 L74.4777093,36.7605286 C74.3522467,36.9408811 74.1954185,36.8703084 73.9993833,36.7605286 C73.4149512,36.34512 72.7238264,36.1056752 72.0076652,36.0704846 C71.3568282,36.0704846 71.0510132,36.4390308 71.0510132,36.8075771 C71.0510132,38.2817621 76.061674,37.2623789 76.061674,41.1909251 Z" id="Path"></path>
                <path d="M84.3657269,41.1909251 C84.3657269,43.3551542 82.1387665,44.5548899 80.1548899,44.5548899 C78.5999471,44.5681344 77.1123528,43.9212304 76.061674,42.7748899 C75.9509502,42.6524507 75.9509502,42.4660515 76.061674,42.3436123 L77.018326,40.9556828 C77.15163,40.806696 77.324141,40.8459031 77.5201762,40.9556828 C78.2667994,41.4796714 79.1428305,41.7888589 80.0529515,41.8496035 C80.5548018,41.8496035 81.1899559,41.7398238 81.1899559,41.1517181 C81.1899559,39.7167401 76.2577093,40.3675771 76.2577093,36.8075771 C76.2577093,34.6590308 78.1082819,33.4671366 80.0294273,33.4671366 C81.4488224,33.4248298 82.8175859,33.9963386 83.7854626,35.0354185 C83.903094,35.1642007 83.903094,35.3614381 83.7854626,35.4902203 L82.8052863,36.76837 C82.6719824,36.9487225 82.5229956,36.8781498 82.3269604,36.76837 C81.7604174,36.3456578 81.0866868,36.0902922 80.3822907,36.0312775 C79.7236123,36.0312775 79.4177974,36.3998238 79.4177974,36.76837 C79.3864317,38.2817621 84.3657269,37.2623789 84.3657269,41.1909251 Z" id="Path"></path>
                <path d="M13.1735683,0.0470484581 C10.5427207,0.0137013363 8.05648022,1.24806721 6.49268722,3.36396476 L6.27312775,1.23110132 C6.27537625,1.03842601 6.19874401,0.853209837 6.06101986,0.718447492 C5.9232957,0.583685146 5.73645757,0.511096972 5.54387665,0.51753304 L0.713568282,0.51753304 C0.521005776,0.505970557 0.332710919,0.577428968 0.196303424,0.713836464 C0.0598959285,0.850243959 -0.0115624831,1.03853882 4.58400679e-16,1.23110132 L4.58400679e-16,32.04 C-0.0118177482,32.2319403 0.0598419108,32.4196313 0.196570402,32.5548573 C0.333298893,32.6900833 0.521770257,32.7596647 0.713568282,32.7457269 L6.39859031,32.7457269 C6.58971516,32.7570816 6.77665729,32.6866591 6.91278716,32.5520252 C7.04891703,32.4173912 7.12140079,32.2312386 7.11215859,32.04 L7.11215859,21.6579736 C8.70579509,23.2755307 10.9042007,24.1514802 13.1735683,24.0731278 C19.6662555,24.0731278 24.402467,18.8115419 24.402467,12.1777093 C24.402467,5.40273128 19.6662555,0.0470484581 13.1735683,0.0470484581 Z M12.3188546,17.5804405 C9.18229075,17.5804405 7.11215859,15.3064317 7.11215859,12.0914537 C7.11215859,8.87647577 9.19013216,6.50052863 12.3188546,6.50052863 C15.4475771,6.50052863 17.5804405,8.77453744 17.5804405,12.0914537 C17.6754903,13.5345122 17.1596274,14.9510729 16.1588745,15.9950775 C15.1581215,17.0390821 13.7646416,17.6143842 12.3188546,17.5804405 Z" id="Shape"></path>
                <path d="M48.9147137,11.6131278 C48.9147137,5.34 44.6019383,0.0468601218 37.8740088,0.0468601218 C34.7093436,0.0291049301 31.6724061,1.29399633 29.4561404,3.55310985 C27.2398747,5.81222336 26.0333618,8.87282238 26.1118943,12.0365639 C26.1118943,18.7174449 31.1382379,24.0732684 38.4385903,24.0732684 C41.672817,24.0887061 44.7788273,22.8095946 47.064141,20.5209692 C47.2303323,20.4058202 47.3368855,20.2228854 47.3550539,20.0215182 C47.3732224,19.8201511 47.3011342,19.6210983 47.1582379,19.4780617 L44.6881938,17.1256388 C44.569753,16.9640138 44.3875543,16.8610962 44.1879882,16.8430903 C43.9884221,16.8250843 43.7907443,16.8937273 43.6452863,17.0315419 C42.3208214,17.9389464 40.7497424,18.4179339 39.1443172,18.4037885 C36.0077533,18.4037885 33.8827313,17.0785903 33.1770044,14.5614978 L47.2915419,14.5614978 C48.6794714,14.545815 48.9147137,13.5499559 48.9147137,11.6131278 Z M33.0437004,10.0448458 C33.3933187,7.65580026 35.5105847,5.92999022 37.9210573,6.0692511 C40.2898816,5.95369283 42.3446172,7.68994437 42.6259031,10.0448458 L33.0437004,10.0448458 Z" id="Shape"></path>
                <path d="M50.2791189,23.0302203 L50.2791189,1.23110132 C50.2704664,1.04342929 50.3395913,0.860495769 50.4701917,0.725443145 C50.600792,0.590390522 50.7813064,0.515174242 50.969163,0.51753304 L56.4581498,0.51753304 C56.6480424,0.515411135 56.8307768,0.589908857 56.9650595,0.724191599 C57.0993422,0.858474341 57.17384,1.0412087 57.1717181,1.23110132 L57.3442291,3.92070485 C58.5282819,1.64669604 60.480793,-0.000119527063 63.3115419,-0.000119527063 C64.4936941,-0.00826570432 65.6387408,0.412420542 66.5343612,1.18405286 C66.8555409,1.42806491 66.9576364,1.86608736 66.7774449,2.22696035 L65.209163,6.30449339 C65.0209692,6.86907489 64.597533,6.96317181 64.0251101,6.82202643 C63.4030377,6.5867829 62.7453629,6.45949099 62.0804405,6.44563877 C59.1477533,6.44563877 57.3755947,8.62555066 57.3755947,11.4719824 L57.3755947,23.0302203 C57.3871572,23.2227828 57.3156988,23.4110776 57.1792913,23.5474851 C57.0428838,23.6838926 56.8545889,23.755351 56.6620264,23.7437885 L50.969163,23.7437885 C50.7805988,23.7484976 50.5986809,23.6740182 50.4675581,23.5384252 C50.3364352,23.4028323 50.2680937,23.2185208 50.2791189,23.0302203 L50.2791189,23.0302203 Z" id="Path"></path>
                <path d="M64.7857269,11.9895154 C64.7455856,7.01328976 67.815243,2.54085029 72.4731221,0.789109402 C77.1310011,-0.962631486 82.3870902,0.37865094 85.6360352,4.14810573 C85.765728,4.2845454 85.8340499,4.46804719 85.8251663,4.65608195 C85.8162828,4.84411671 85.7309651,5.02035994 85.5889868,5.14396476 L82.1779736,8.46088106 C81.8486344,8.79022026 81.5114537,8.74317181 81.1350661,8.4138326 C79.9916149,7.28465541 78.4527911,6.6460576 76.845815,6.6338326 C75.427179,6.61157611 74.0614353,7.17183318 73.0671152,8.1839354 C72.0727952,9.19603762 71.5368324,10.5714968 71.5842291,11.9895154 C71.5176209,13.4251627 72.0429361,14.8252689 73.0374654,15.8627809 C74.0319948,16.9002929 75.4086353,17.4843431 76.845815,17.4785022 C78.489848,17.4555576 80.064274,16.8112196 81.2526872,15.674978 C81.3811681,15.5048515 81.5825291,15.4054979 81.7957145,15.4070427 C82.0088998,15.4085875 82.2087998,15.5108488 82.3348018,15.6828194 L85.745815,18.9526872 C85.8877933,19.076292 85.973111,19.2525353 85.9819945,19.44057 C85.990878,19.6286048 85.9225562,19.8121066 85.7928634,19.9485463 C82.5101871,23.7491793 77.2025633,25.0937867 72.5062974,23.3144997 C67.8100315,21.5352127 64.7258724,17.0111877 64.7857269,11.9895154 Z" id="Path"></path>
                <path d="M108.948546,0.51753304 L104.118238,0.51753304 C103.928345,0.515411135 103.745611,0.589908857 103.611328,0.724191599 C103.477045,0.858474341 103.402548,1.0412087 103.40467,1.23110132 L103.169427,3.36396476 C101.605634,1.24806721 99.1193938,0.0137013363 96.4885463,0.0470484581 C89.995859,0.0470484581 85.2596476,5.40273128 85.2596476,12.1777093 C85.2596476,18.8115419 89.9644934,24.0731278 96.4885463,24.0731278 C99.0549561,24.1658787 101.514358,23.0408333 103.122379,21.0385022 L103.40467,23.0302203 C103.400337,23.2207654 103.474125,23.4047923 103.608895,23.5395629 C103.743666,23.6743335 103.927693,23.7481208 104.118238,23.7437885 L108.948546,23.7437885 C109.141109,23.755351 109.329404,23.6838926 109.465811,23.5474851 C109.602219,23.4110776 109.673677,23.2227828 109.662115,23.0302203 L109.662115,1.23110132 C109.673677,1.03853882 109.602219,0.850243959 109.465811,0.713836464 C109.329404,0.577428968 109.141109,0.505970557 108.948546,0.51753304 Z M97.3432599,17.5804405 C95.8974729,17.6143842 94.503993,17.0390821 93.5032401,15.9950775 C92.5024871,14.9510729 91.9866242,13.5345122 92.081674,12.0914537 C92.081674,8.77453744 94.3086344,6.50052863 97.3432599,6.50052863 C100.377885,6.50052863 102.557797,8.96273128 102.557797,12.0914537 C102.557797,15.2201762 100.471982,17.5804405 97.3432599,17.5804405 Z" id="Shape"></path>
                <path d="M111.481322,1.32519824 C111.293128,0.807665198 111.52837,0.541057269 112.053744,0.541057269 L117.785815,0.541057269 C118.16435,0.527586325 118.508874,0.758322626 118.640529,1.11348018 L123.894273,15.4005286 L129.100969,1.08995595 C129.234613,0.736371909 129.577846,0.506499857 129.955683,0.51753304 L135.789692,0.51753304 C136.307225,0.51753304 136.573833,0.807665198 136.354273,1.30167401 L124.04326,32.1497797 C123.91098,32.503447 123.565754,32.7314863 123.188546,32.7143612 L117.621145,32.7143612 C117.095771,32.7143612 116.766432,32.4320705 117.048722,31.9302203 L120.412687,23.7829956 L111.481322,1.32519824 Z" id="Path"></path>
                <path d="M153.056476,16.8747137 C153.056476,21.5795595 148.218326,24.2142731 143.905551,24.2142731 C140.520135,24.2424631 137.282048,22.8315008 134.997709,20.3327753 C134.760471,20.060994 134.760471,19.6557461 134.997709,19.3839648 L137.083524,16.3493392 C137.365815,16.02 137.750044,16.1140969 138.17348,16.3493392 C139.792549,17.4840853 141.690136,18.1563731 143.662467,18.2940088 C144.752423,18.2940088 146.12467,18.0587665 146.12467,16.7727753 C146.12467,13.6362115 135.413304,15.1182379 135.413304,7.30035242 C135.413304,2.59550661 139.443789,-5.90239663e-16 143.615419,-5.90239663e-16 C146.711659,-0.0720031059 149.685839,1.2075527 151.762643,3.50511013 C152.015755,3.79624635 151.995026,4.23499246 151.715595,4.50096916 L149.590573,7.30035242 C149.300441,7.67674009 148.971101,7.53559471 148.547665,7.25330396 C146.744141,6.21039648 145.748282,5.63797357 144.328987,5.63797357 C142.909692,5.63797357 142.243172,6.42211454 142.243172,7.25330396 C142.251013,10.5231718 153.056476,8.29621145 153.056476,16.8747137 Z" id="Path"></path>
                <path d="M165.688987,-6.96491476e-16 C159.008542,0.0129927978 153.601069,5.43450689 153.605397,12.1149627 C153.609731,18.7954185 159.024229,24.2099168 165.704685,24.2142503 C172.385141,24.2185786 177.806655,18.8111054 177.819648,12.1306608 C177.84069,8.90700465 176.569401,5.80928225 174.289883,3.52976456 C172.010365,1.25024688 168.912643,-0.0210428158 165.688987,-6.96491476e-16 L165.688987,-6.96491476e-16 Z M165.688987,17.627489 C164.256722,17.6177992 162.889336,17.0289185 161.898193,15.9949393 C160.90705,14.9609601 160.376517,13.569896 160.427401,12.1385022 C160.320992,10.1901742 161.299923,8.34253585 162.971717,7.33635024 C164.643512,6.33016462 166.734462,6.33016462 168.406256,7.33635024 C170.07805,8.34253585 171.056981,10.1901742 170.950573,12.1385022 C171.008121,13.5717125 170.479799,14.9666044 169.487226,16.002076 C168.494652,17.0375476 167.123349,17.6243813 165.688987,17.627489 L165.688987,17.627489 Z" id="Shape"></path>
            </g>
        </g>
    </g>
</svg>