<?xml version="1.0" encoding="UTF-8"?>
<svg width="178px" height="33px" viewBox="0 0 178 33" version="1.1" xmlns="http://www.w3.org/2000/svg" xmlns:xlink="http://www.w3.org/1999/xlink">
    <!-- Generator: Sketch 64 (93537) - https://sketch.com -->
    <title>Asset 7</title>
    <desc>Created with Sketch.</desc>
    <g id="Page-1" stroke="none" stroke-width="1" fill="none" fill-rule="evenodd">
        <g id="Community-V1" transform="translate(-761.000000, -5446.000000)" fill="#FFFFFF" fill-rule="nonzero">
            <g id="Asset-7" transform="translate(761.000000, 5446.000000)">
                <g id="Asset-6">
                    <path d="M13.1735683,0.0470484581 C10.5427207,0.0137013363 8.05648022,1.24806721 6.49268722,3.36396476 L6.27312775,1.23110132 C6.27537625,1.03842601 6.19874401,0.853209837 6.06101986,0.718447492 C5.9232957,0.583685146 5.73645757,0.511096972 5.54387665,0.51753304 L0.713568282,0.51753304 C0.521005776,0.505970557 0.332710919,0.577428968 0.196303424,0.713836464 C0.0598959285,0.850243959 -0.0115624831,1.03853882 3.24458342e-15,1.23110132 L3.24458342e-15,32.04 C-0.0118177482,32.2319403 0.0598419108,32.4196313 0.196570402,32.5548573 C0.333298893,32.6900833 0.521770257,32.7596647 0.713568282,32.7457269 L6.39859031,32.7457269 C6.58971516,32.7570816 6.77665729,32.6866591 6.91278716,32.5520252 C7.04891703,32.4173912 7.12140079,32.2312386 7.11215859,32.04 L7.11215859,21.6579736 C8.70579509,23.2755307 10.9042007,24.1514802 13.1735683,24.0731278 C19.6662555,24.0731278 24.402467,18.8115419 24.402467,12.1777093 C24.402467,5.40273128 19.6662555,0.0470484581 13.1735683,0.0470484581 Z M12.3188546,17.5804405 C9.18229075,17.5804405 7.11215859,15.3064317 7.11215859,12.0914537 C7.11215859,8.87647577 9.19013216,6.50052863 12.3188546,6.50052863 C15.4475771,6.50052863 17.5804405,8.77453744 17.5804405,12.0914537 C17.6754903,13.5345122 17.1596274,14.9510729 16.1588745,15.9950775 C15.1581215,17.0390821 13.7646416,17.6143842 12.3188546,17.5804405 Z M48.9147137,11.6131278 C48.9147137,5.34 44.6019383,0.0468601218 37.8740088,0.0468601218 C34.7093436,0.0291049301 31.6724061,1.29399633 29.4561404,3.55310985 C27.2398747,5.81222336 26.0333618,8.87282238 26.1118943,12.0365639 C26.1118943,18.7174449 31.1382379,24.0732684 38.4385903,24.0732684 C41.672817,24.0887061 44.7788273,22.8095946 47.064141,20.5209692 C47.2303323,20.4058202 47.3368855,20.2228854 47.3550539,20.0215182 C47.3732224,19.8201511 47.3011342,19.6210983 47.1582379,19.4780617 L44.6881938,17.1256388 C44.569753,16.9640138 44.3875543,16.8610962 44.1879882,16.8430903 C43.9884221,16.8250843 43.7907443,16.8937273 43.6452863,17.0315419 C42.3208214,17.9389464 40.7497424,18.4179339 39.1443172,18.4037885 C36.0077533,18.4037885 33.8827313,17.0785903 33.1770044,14.5614978 L47.2915419,14.5614978 C48.6794714,14.545815 48.9147137,13.5499559 48.9147137,11.6131278 Z M33.0437004,10.0448458 C33.3933187,7.65580026 35.5105847,5.92999022 37.9210573,6.0692511 C40.2898816,5.95369283 42.3446172,7.68994437 42.6259031,10.0448458 L33.0437004,10.0448458 Z M50.969163,23.7437885 L56.654185,23.7437885 C56.8467475,23.755351 57.0350424,23.6838926 57.1714499,23.5474851 C57.3078574,23.4110776 57.3793158,23.2227828 57.3677533,23.0302203 L57.3677533,11.4719824 C57.3677533,8.62555066 59.1242291,6.44563877 62.0725991,6.44563877 C62.7375215,6.45949099 63.3951963,6.5867829 64.0172687,6.82202643 C64.5896916,6.96317181 65.0131278,6.86907489 65.2013216,6.30449339 L66.7696035,2.22696035 C66.949795,1.86608736 66.8476995,1.42806491 66.5265198,1.18405286 C65.6329378,0.414200267 64.4909999,-0.00636708251 63.3115419,-7.12487948e-05 C60.4729515,-7.12487948e-05 58.5282819,1.66237885 57.3442291,3.92070485 L57.1560352,1.2154185 C57.1517955,0.831756885 56.8418114,0.521772781 56.4581498,0.51753304 L50.969163,0.51753304 C50.7772828,0.508488102 50.590481,0.580758443 50.4546506,0.716588889 C50.3188201,0.852419336 50.2465498,1.03922113 50.2555947,1.23110132 L50.2555947,23.0302203 C50.2440322,23.2227828 50.3154906,23.4110776 50.4518981,23.5474851 C50.5883056,23.6838926 50.7766005,23.755351 50.969163,23.7437885 L50.969163,23.7437885 Z M76.6576211,24.0733425 C80.1467892,24.094038 83.4703591,22.5869709 85.7536564,19.9485463 C85.8833491,19.8121066 85.951671,19.6286048 85.9427875,19.44057 C85.9339039,19.2525353 85.8485862,19.076292 85.7066079,18.9526872 L82.3348018,15.6828194 C82.2067136,15.5266203 82.0153499,15.4360667 81.813348,15.4360667 C81.6113462,15.4360667 81.4199825,15.5266203 81.2918943,15.6828194 C80.0936254,16.8282633 78.5034398,17.4733121 76.845815,17.4863436 C75.4086353,17.4921845 74.0319948,16.9081343 73.0374654,15.8706223 C72.0429361,14.8331103 71.5176209,13.4330041 71.5842291,11.9973568 C71.5346355,10.5780023 72.0696242,9.2004723 73.0641912,8.18663645 C74.0587583,7.17280059 75.4257702,6.6114805 76.845815,6.6338326 C78.4479411,6.65842408 79.9776907,7.30519319 81.1115419,8.43735683 C81.4879295,8.76669604 81.8251101,8.81374449 82.1544493,8.48440529 L85.5654626,5.16748899 C85.7074408,5.04388417 85.7927586,4.86764094 85.8016421,4.67960618 C85.8105256,4.49157142 85.7422037,4.30806963 85.612511,4.17162996 C82.363566,0.402175169 77.1074769,-0.939107257 72.4495978,0.812633631 C67.7917188,2.56437452 64.7220614,7.03681399 64.7622026,12.0130396 C64.7159218,15.2010502 65.9522171,18.2740263 68.1934092,20.5417589 C70.4346014,22.8094915 73.4928109,24.0818762 76.6811454,24.0733425 L76.6576211,24.0733425 Z M108.925022,0.548898678 L104.094714,0.548898678 C103.904821,0.546776774 103.722087,0.621274496 103.587804,0.755557238 C103.453521,0.88983998 103.379023,1.07257434 103.381145,1.26246696 L103.145903,3.3953304 C101.593697,1.27436542 99.1167576,0.0286017886 96.4885463,0.046846434 C89.995859,0.046846434 85.2596476,5.40273128 85.2596476,12.1777093 C85.2596476,18.8115419 89.9644934,24.0731278 96.4885463,24.0731278 C99.0549561,24.1658787 101.514358,23.0408333 103.122379,21.0385022 L103.40467,23.0302203 C103.400337,23.2207654 103.474125,23.4047923 103.608895,23.5395629 C103.743666,23.6743335 103.927693,23.7481208 104.118238,23.7437885 L108.948546,23.7437885 C109.141109,23.755351 109.329404,23.6838926 109.465811,23.5474851 C109.602219,23.4110776 109.673677,23.2227828 109.662115,23.0302203 L109.662115,1.23110132 C109.673677,1.03853882 109.602219,0.850243959 109.465811,0.713836464 C109.329404,0.577428968 109.141109,0.505970557 108.948546,0.51753304 L108.925022,0.548898678 Z M97.3197357,17.6118062 C95.8739487,17.6457498 94.4804688,17.0704477 93.4797158,16.0264431 C92.4789629,14.9824385 91.9631,13.5658778 92.0581498,12.1228194 C92.0581498,8.80590308 94.2851101,6.53189427 97.3197357,6.53189427 C100.354361,6.53189427 102.534273,8.99409692 102.534273,12.1228194 C102.534273,15.2515419 100.471982,17.5804405 97.3432599,17.5804405 L97.3197357,17.6118062 Z M120.412687,23.8222026 L117.072247,31.9380617 C116.789956,32.4634361 117.119295,32.7222026 117.64467,32.7222026 L123.188546,32.7222026 C123.565754,32.7393277 123.91098,32.5112884 124.04326,32.1576211 L136.315066,1.32519824 C136.50326,0.807665198 136.268018,0.541057269 135.750485,0.541057269 L129.916476,0.541057269 C129.538639,0.530024086 129.195406,0.759896138 129.061762,1.11348018 L123.894273,15.4005286 L118.640529,1.08995595 C118.508874,0.734798397 118.16435,0.504062096 117.785815,0.51753304 L112.053744,0.51753304 C111.52837,0.51753304 111.269604,0.807665198 111.481322,1.30167401 L120.412687,23.8222026 Z M142.251013,7.25330396 C142.251013,6.469163 142.909692,5.63797357 144.336828,5.63797357 C145.763965,5.63797357 146.751982,6.21039648 148.555507,7.25330396 C148.978943,7.53559471 149.339648,7.67674009 149.598414,7.30035242 L151.723436,4.50096916 C152.002868,4.23499246 152.023596,3.79624635 151.770485,3.50511013 C149.69368,1.2075527 146.7195,-0.0720031059 143.62326,-1.18438245e-15 C139.45163,-1.18438245e-15 135.421145,2.60334802 135.421145,7.30035242 C135.421145,15.1417621 146.132511,13.6518943 146.132511,16.7727753 C146.132511,18.0587665 144.760264,18.2940088 143.670308,18.2940088 C141.697977,18.1563731 139.800391,17.4840853 138.181322,16.3493392 C137.757885,16.1140969 137.397181,16.02 137.091366,16.3493392 L135.005551,19.3839648 C134.768312,19.6557461 134.768312,20.060994 135.005551,20.3327753 C137.289889,22.8315008 140.527977,24.2424631 143.913392,24.2142731 C148.226167,24.2142731 153.064317,21.6109251 153.064317,16.8747137 C153.056476,8.29621145 142.251013,10.5231718 142.251013,7.25330396 Z M165.688987,-1.89084859e-16 C159.008542,0.0129927978 153.601069,5.43450689 153.605397,12.1149627 C153.609731,18.7954185 159.024229,24.2099168 165.704685,24.2142503 C172.385141,24.2185786 177.806655,18.8111054 177.819648,12.1306608 C177.84069,8.90700465 176.569401,5.80928225 174.289883,3.52976456 C172.010365,1.25024688 168.912643,-0.0210428158 165.688987,-1.89084859e-16 L165.688987,-1.89084859e-16 Z M165.688987,17.627489 C164.256722,17.6177992 162.889336,17.0289185 161.898193,15.9949393 C160.90705,14.9609601 160.376517,13.569896 160.427401,12.1385022 C160.320992,10.1901742 161.299923,8.34253585 162.971717,7.33635024 C164.643512,6.33016462 166.734462,6.33016462 168.406256,7.33635024 C170.07805,8.34253585 171.056981,10.1901742 170.950573,12.1385022 C171.008121,13.5717125 170.479799,14.9666044 169.487226,16.002076 C168.494652,17.0375476 167.123349,17.6243813 165.688987,17.627489 L165.688987,17.627489 Z" id="Shape"></path>
                </g>
            </g>
        </g>
    </g>
</svg>