<?xml version="1.0" encoding="UTF-8"?>
<svg width="178px" height="45px" viewBox="0 0 178 45" version="1.1" xmlns="http://www.w3.org/2000/svg" xmlns:xlink="http://www.w3.org/1999/xlink">
    <!-- Generator: Sketch 64 (93537) - https://sketch.com -->
    <title>Asset 3</title>
    <desc>Created with Sketch.</desc>
    <g id="Page-1" stroke="none" stroke-width="1" fill="none" fill-rule="evenodd">
        <g id="Community-V1" transform="translate(-1209.000000, -5887.000000)" fill="#FFFFFF" fill-rule="nonzero">
            <g id="Asset-3" transform="translate(1209.000000, 5887.000000)">
                <path d="M10.8368282,30.1031718 C10.8306191,29.3909899 11.2569625,28.7462013 11.9147007,28.4730309 C12.5724389,28.1998604 13.3301333,28.3528968 13.8302879,28.8599342 C14.3304425,29.3669717 14.4731094,30.1266869 14.1909753,30.7806303 C13.9088411,31.4345737 13.258286,31.8520651 12.5462555,31.8361233 C11.5983722,31.823255 10.8367613,31.0511425 10.8368282,30.1031718 Z M11.2681057,33.7180617 L13.8871366,33.7180617 C13.9758011,33.7135056 14.0622432,33.7467382 14.1250212,33.8095162 C14.1877993,33.8722943 14.2210318,33.9587363 14.2164758,34.0474009 L14.2164758,44.0138326 C14.2187705,44.1011622 14.1845405,44.1854922 14.1220281,44.2465162 C14.0595157,44.3075402 13.9743855,44.3397285 13.8871366,44.3353304 L11.2681057,44.3353304 C11.1808568,44.3397285 11.0957266,44.3075402 11.0332142,44.2465162 C10.9707018,44.1854922 10.9364717,44.1011622 10.9387665,44.0138326 L10.9387665,34.0317181 C10.9386581,33.9457413 10.9738488,33.8634896 11.0361079,33.8041952 C11.098367,33.7449009 11.1822365,33.7137628 11.2681057,33.7180617 Z M25.6100441,38.0622026 L25.6100441,44.0295154 C25.6123388,44.116845 25.5781088,44.201175 25.5155964,44.262199 C25.453084,44.323223 25.3679538,44.3554113 25.2807048,44.3510132 L22.661674,44.3510132 C22.574425,44.3554113 22.4892948,44.323223 22.4267825,44.262199 C22.3642701,44.201175 22.33004,44.116845 22.3323348,44.0295154 L22.3323348,38.6973568 C22.3323348,36.9800881 21.3756828,36.4782379 20.5052863,36.4782379 C19.4252765,36.519201 18.5396871,37.347979 18.4273128,38.4229075 L18.4273128,44.0059912 C18.4321058,44.0940322 18.3986661,44.1798577 18.335573,44.2414487 C18.2724798,44.3030396 18.1858735,44.3344018 18.0979736,44.327489 L15.4789427,44.327489 C15.3923568,44.3320558 15.3079022,44.2996529 15.2465916,44.2383423 C15.185281,44.1770317 15.1528781,44.0925771 15.1574449,44.0059912 L15.1574449,34.0317181 C15.1505322,33.9438181 15.1818943,33.8572118 15.2434853,33.7941187 C15.3050762,33.7310255 15.3909018,33.6975858 15.4789427,33.7023789 L18.0352423,33.7023789 C18.2171313,33.7023789 18.3645815,33.849829 18.3645815,34.0317181 L18.450837,35.3725991 C19.1219157,34.1872588 20.3821362,33.4581313 21.7442291,33.4670541 C23.8849339,33.4670541 25.6100441,35.2000881 25.6100441,38.0465198 L25.6100441,38.0622026 Z M34.776652,30.5814978 L33.4671366,31.8361233 C33.3896274,31.9230337 33.2613699,31.9427656 33.1613216,31.8831718 C32.6594969,31.5544814 32.0817108,31.3600861 31.4832599,31.3185903 C30.4560352,31.3185903 30.3227313,31.8361233 30.3227313,32.5810573 L30.3227313,33.7180617 L32.4869604,33.7180617 C32.5750013,33.7132687 32.6608269,33.7467083 32.7224178,33.8098015 C32.7840088,33.8728946 32.8153709,33.9595009 32.8084581,34.0474009 L32.8084581,36.0155947 C32.8153709,36.1034947 32.7840088,36.190101 32.7224178,36.2531941 C32.6608269,36.3162873 32.5750013,36.3497269 32.4869604,36.3449339 L30.3227313,36.3449339 L30.3227313,44.0295154 C30.3250261,44.116845 30.290796,44.201175 30.2282836,44.262199 C30.1657712,44.323223 30.080641,44.3554113 29.9933921,44.3510132 L27.3743612,44.3510132 C27.2877753,44.35558 27.2033207,44.3231772 27.1420101,44.2618666 C27.0806995,44.200556 27.0482966,44.1161014 27.0528634,44.0295154 L27.0528634,36.3449339 L25.7825551,36.3449339 C25.6945141,36.3497269 25.6086885,36.3162873 25.5470976,36.2531941 C25.4855067,36.190101 25.4541445,36.1034947 25.4610573,36.0155947 L25.4610573,34.0317181 C25.4541445,33.9438181 25.4855067,33.8572118 25.5470976,33.7941187 C25.6086885,33.7310255 25.6945141,33.6975858 25.7825551,33.7023789 L27.0528634,33.7023789 L27.0528634,32.1497797 C27.0528634,29.5699559 28.6838767,28.3937445 31.0206167,28.3937445 C32.4983941,28.4100625 33.8887957,29.0966094 34.8001762,30.26 C34.8747371,30.3577031 34.8646407,30.4956885 34.776652,30.5814978 L34.776652,30.5814978 Z M32.7222026,39.0188546 C32.7031341,36.7550984 34.0529524,34.7039101 36.1395593,33.8258284 C38.2261661,32.9477467 40.6364671,33.4166092 42.2417568,35.012855 C43.8470465,36.6091008 44.3295189,39.0167144 43.4632399,41.1082489 C42.5969608,43.1997833 40.5534313,44.5611686 38.2896035,44.5549788 C36.8159287,44.5632394 35.3997452,43.9836683 34.3547435,42.944554 C33.3097418,41.9054396 32.722179,40.4925531 32.7222026,39.0188546 L32.7222026,39.0188546 Z M40.7125991,39.0188546 C40.6483982,37.6978929 39.5368241,36.6724305 38.2149795,36.714721 C36.893135,36.7570115 35.8493835,37.8514305 35.869752,39.1737946 C35.8901204,40.4961586 36.9670835,41.5579121 38.2896035,41.5594714 C38.9524187,41.5580096 39.5858937,41.2859531 40.0433414,40.8062993 C40.500789,40.3266455 40.7425344,39.6809951 40.7125991,39.0188546 L40.7125991,39.0188546 Z M51.9728634,34.5022026 L51.2514537,36.3684581 C51.1651982,36.6272247 50.969163,36.6664317 50.7103965,36.6037004 C50.4240654,36.4969721 50.1219598,36.438671 49.8164758,36.4311894 C49.2141441,36.4155924 48.6336997,36.6573745 48.2205578,37.0959636 C47.8074158,37.5345527 47.6007179,38.1283963 47.6522467,38.7287225 L47.6522467,44.0295154 C47.6568135,44.1161014 47.6244106,44.200556 47.5631,44.2618666 C47.5017894,44.3231772 47.4173348,44.35558 47.3307489,44.3510132 L44.6960352,44.3510132 C44.6094493,44.35558 44.5249947,44.3231772 44.4636841,44.2618666 C44.4023735,44.200556 44.3699706,44.1161014 44.3745374,44.0295154 L44.3745374,34.0317181 C44.3722369,33.9464664 44.4056394,33.8641266 44.4666832,33.8045717 C44.5277271,33.7450168 44.6108664,33.7136572 44.6960352,33.7180617 L47.2131278,33.7180617 C47.3004574,33.7157669 47.3847873,33.7499969 47.4458113,33.8125093 C47.5068353,33.8750217 47.5390237,33.9601519 47.5346256,34.0474009 L47.6287225,35.2863436 C48.1177502,34.2024885 49.1920365,33.5016009 50.3810573,33.4905617 C50.924293,33.4855565 51.4509141,33.677815 51.8630837,34.0317181 C52.0116999,34.1393484 52.0584984,34.3399137 51.9728634,34.5022026 L51.9728634,34.5022026 Z M69.4748899,38.0465198 L69.4748899,44.0138326 C69.4794567,44.1004185 69.4470538,44.1848731 69.3857432,44.2461837 C69.3244326,44.3074943 69.239978,44.3398972 69.1533921,44.3353304 L66.5343612,44.3353304 C66.4471123,44.3397285 66.3619821,44.3075402 66.2994697,44.2465162 C66.2369573,44.1854922 66.2027273,44.1011622 66.205022,44.0138326 L66.205022,38.6973568 C66.205022,36.9800881 65.24837,36.4782379 64.3701322,36.4782379 C63.313956,36.4436667 62.4104539,37.2308087 62.3,38.2817621 L62.3,44.0138326 C62.3022948,44.1011622 62.2680647,44.1854922 62.2055524,44.2465162 C62.14304,44.3075402 62.0579098,44.3397285 61.9706608,44.3353304 L59.35163,44.3353304 C59.264381,44.3397285 59.1792508,44.3075402 59.1167384,44.2465162 C59.054226,44.1854922 59.019996,44.1011622 59.0222907,44.0138326 L59.0222907,38.6973568 C59.0222907,36.9800881 58.0656388,36.4782379 57.1952423,36.4782379 C56.1152325,36.519201 55.2296431,37.347979 55.1172687,38.4229075 L55.1172687,44.0059912 C55.1195635,44.0933208 55.0853335,44.1776508 55.0228211,44.2386748 C54.9603087,44.2996988 54.8751785,44.3318871 54.7879295,44.327489 L52.1688987,44.327489 C52.0823127,44.3320558 51.9978581,44.2996529 51.9365475,44.2383423 C51.8752369,44.1770317 51.8428341,44.0925771 51.8474009,44.0059912 L51.8474009,34.0317181 C51.8404881,33.9438181 51.8718503,33.8572118 51.9334412,33.7941187 C51.9950321,33.7310255 52.0808577,33.6975858 52.1688987,33.7023789 L54.701674,33.7023789 C54.883563,33.7023789 55.0310132,33.849829 55.0310132,34.0317181 L55.1172687,35.3725991 C55.7871139,34.1860376 57.0481239,33.4564532 58.4106608,33.4671366 C59.772115,33.4459399 61.0299823,34.1915673 61.6648458,35.3961233 C62.491167,34.1625236 63.8893923,33.4353282 65.3738326,33.4671366 C67.7576211,33.4671366 69.4748899,35.2000881 69.4748899,38.0465198 Z M13.1735683,0.0470484581 C10.5427207,0.0137013363 8.05648022,1.24806721 6.49268722,3.36396476 L6.27312775,1.23110132 C6.27537625,1.03842601 6.19874401,0.853209837 6.06101986,0.718447492 C5.9232957,0.583685146 5.73645757,0.511096972 5.54387665,0.51753304 L0.713568282,0.51753304 C0.521005776,0.505970557 0.332710919,0.577428968 0.196303424,0.713836464 C0.0598959285,0.850243959 -0.0115624831,1.03853882 3.24458342e-15,1.23110132 L3.24458342e-15,32.04 C-0.0118177482,32.2319403 0.0598419108,32.4196313 0.196570402,32.5548573 C0.333298893,32.6900833 0.521770257,32.7596647 0.713568282,32.7457269 L6.39859031,32.7457269 C6.58971516,32.7570816 6.77665729,32.6866591 6.91278716,32.5520252 C7.04891703,32.4173912 7.12140079,32.2312386 7.11215859,32.04 L7.11215859,21.6579736 C8.70579509,23.2755307 10.9042007,24.1514802 13.1735683,24.0731278 C19.6662555,24.0731278 24.402467,18.8115419 24.402467,12.1777093 C24.402467,5.40273128 19.6662555,0.0470484581 13.1735683,0.0470484581 Z M12.3188546,17.5804405 C9.18229075,17.5804405 7.11215859,15.3064317 7.11215859,12.0914537 C7.11215859,8.87647577 9.19013216,6.50052863 12.3188546,6.50052863 C15.4475771,6.50052863 17.5804405,8.77453744 17.5804405,12.0914537 C17.6754903,13.5345122 17.1596274,14.9510729 16.1588745,15.9950775 C15.1581215,17.0390821 13.7646416,17.6143842 12.3188546,17.5804405 Z M48.9147137,11.6131278 C48.9147137,5.34 44.6019383,0.0468601218 37.8740088,0.0468601218 C34.7093436,0.0291049301 31.6724061,1.29399633 29.4561404,3.55310985 C27.2398747,5.81222336 26.0333618,8.87282238 26.1118943,12.0365639 C26.1118943,18.7174449 31.1382379,24.0732684 38.4385903,24.0732684 C41.672817,24.0887061 44.7788273,22.8095946 47.064141,20.5209692 C47.2303323,20.4058202 47.3368855,20.2228854 47.3550539,20.0215182 C47.3732224,19.8201511 47.3011342,19.6210983 47.1582379,19.4780617 L44.6881938,17.1256388 C44.569753,16.9640138 44.3875543,16.8610962 44.1879882,16.8430903 C43.9884221,16.8250843 43.7907443,16.8937273 43.6452863,17.0315419 C42.3208214,17.9389464 40.7497424,18.4179339 39.1443172,18.4037885 C36.0077533,18.4037885 33.8827313,17.0785903 33.1770044,14.5614978 L47.2915419,14.5614978 C48.6794714,14.545815 48.9147137,13.5499559 48.9147137,11.6131278 Z M33.0437004,10.0448458 C33.3933187,7.65580026 35.5105847,5.92999022 37.9210573,6.0692511 C40.2898816,5.95369283 42.3446172,7.68994437 42.6259031,10.0448458 L33.0437004,10.0448458 Z M50.969163,23.7437885 L56.654185,23.7437885 C56.8467475,23.755351 57.0350424,23.6838926 57.1714499,23.5474851 C57.3078574,23.4110776 57.3793158,23.2227828 57.3677533,23.0302203 L57.3677533,11.4719824 C57.3677533,8.62555066 59.1242291,6.44563877 62.0725991,6.44563877 C62.7375215,6.45949099 63.3951963,6.5867829 64.0172687,6.82202643 C64.5896916,6.96317181 65.0131278,6.86907489 65.2013216,6.30449339 L66.7696035,2.22696035 C66.949795,1.86608736 66.8476995,1.42806491 66.5265198,1.18405286 C65.6329378,0.414200267 64.4909999,-0.00636708251 63.3115419,-7.12487948e-05 C60.4729515,-7.12487948e-05 58.5282819,1.66237885 57.3442291,3.92070485 L57.1560352,1.2154185 C57.1517955,0.831756885 56.8418114,0.521772781 56.4581498,0.51753304 L50.969163,0.51753304 C50.7772828,0.508488102 50.590481,0.580758443 50.4546506,0.716588889 C50.3188201,0.852419336 50.2465498,1.03922113 50.2555947,1.23110132 L50.2555947,23.0302203 C50.2440322,23.2227828 50.3154906,23.4110776 50.4518981,23.5474851 C50.5883056,23.6838926 50.7766005,23.755351 50.969163,23.7437885 L50.969163,23.7437885 Z M76.6576211,24.0733425 C80.1467892,24.094038 83.4703591,22.5869709 85.7536564,19.9485463 C85.8833491,19.8121066 85.951671,19.6286048 85.9427875,19.44057 C85.9339039,19.2525353 85.8485862,19.076292 85.7066079,18.9526872 L82.3348018,15.6828194 C82.2067136,15.5266203 82.0153499,15.4360667 81.813348,15.4360667 C81.6113462,15.4360667 81.4199825,15.5266203 81.2918943,15.6828194 C80.0936254,16.8282633 78.5034398,17.4733121 76.845815,17.4863436 C75.4086353,17.4921845 74.0319948,16.9081343 73.0374654,15.8706223 C72.0429361,14.8331103 71.5176209,13.4330041 71.5842291,11.9973568 C71.5346355,10.5780023 72.0696242,9.2004723 73.0641912,8.18663645 C74.0587583,7.17280059 75.4257702,6.6114805 76.845815,6.6338326 C78.4479411,6.65842408 79.9776907,7.30519319 81.1115419,8.43735683 C81.4879295,8.76669604 81.8251101,8.81374449 82.1544493,8.48440529 L85.5654626,5.16748899 C85.7074408,5.04388417 85.7927586,4.86764094 85.8016421,4.67960618 C85.8105256,4.49157142 85.7422037,4.30806963 85.612511,4.17162996 C82.363566,0.402175169 77.1074769,-0.939107257 72.4495978,0.812633631 C67.7917188,2.56437452 64.7220614,7.03681399 64.7622026,12.0130396 C64.7159218,15.2010502 65.9522171,18.2740263 68.1934092,20.5417589 C70.4346014,22.8094915 73.4928109,24.0818762 76.6811454,24.0733425 L76.6576211,24.0733425 Z M108.925022,0.548898678 L104.094714,0.548898678 C103.904821,0.546776774 103.722087,0.621274496 103.587804,0.755557238 C103.453521,0.88983998 103.379023,1.07257434 103.381145,1.26246696 L103.145903,3.3953304 C101.593697,1.27436542 99.1167576,0.0286017886 96.4885463,0.046846434 C89.995859,0.046846434 85.2596476,5.40273128 85.2596476,12.1777093 C85.2596476,18.8115419 89.9644934,24.0731278 96.4885463,24.0731278 C99.0549561,24.1658787 101.514358,23.0408333 103.122379,21.0385022 L103.40467,23.0302203 C103.400337,23.2207654 103.474125,23.4047923 103.608895,23.5395629 C103.743666,23.6743335 103.927693,23.7481208 104.118238,23.7437885 L108.948546,23.7437885 C109.141109,23.755351 109.329404,23.6838926 109.465811,23.5474851 C109.602219,23.4110776 109.673677,23.2227828 109.662115,23.0302203 L109.662115,1.23110132 C109.673677,1.03853882 109.602219,0.850243959 109.465811,0.713836464 C109.329404,0.577428968 109.141109,0.505970557 108.948546,0.51753304 L108.925022,0.548898678 Z M97.3197357,17.6118062 C95.8739487,17.6457498 94.4804688,17.0704477 93.4797158,16.0264431 C92.4789629,14.9824385 91.9631,13.5658778 92.0581498,12.1228194 C92.0581498,8.80590308 94.2851101,6.53189427 97.3197357,6.53189427 C100.354361,6.53189427 102.534273,8.99409692 102.534273,12.1228194 C102.534273,15.2515419 100.471982,17.5804405 97.3432599,17.5804405 L97.3197357,17.6118062 Z M120.412687,23.8222026 L117.072247,31.9380617 C116.789956,32.4634361 117.119295,32.7222026 117.64467,32.7222026 L123.188546,32.7222026 C123.565754,32.7393277 123.91098,32.5112884 124.04326,32.1576211 L136.315066,1.32519824 C136.50326,0.807665198 136.268018,0.541057269 135.750485,0.541057269 L129.916476,0.541057269 C129.538639,0.530024086 129.195406,0.759896138 129.061762,1.11348018 L123.894273,15.4005286 L118.640529,1.08995595 C118.508874,0.734798397 118.16435,0.504062096 117.785815,0.51753304 L112.053744,0.51753304 C111.52837,0.51753304 111.269604,0.807665198 111.481322,1.30167401 L120.412687,23.8222026 Z M142.251013,7.25330396 C142.251013,6.469163 142.909692,5.63797357 144.336828,5.63797357 C145.763965,5.63797357 146.751982,6.21039648 148.555507,7.25330396 C148.978943,7.53559471 149.339648,7.67674009 149.598414,7.30035242 L151.723436,4.50096916 C152.002868,4.23499246 152.023596,3.79624635 151.770485,3.50511013 C149.69368,1.2075527 146.7195,-0.0720031059 143.62326,-1.18308141e-15 C139.45163,-1.18308141e-15 135.421145,2.60334802 135.421145,7.30035242 C135.421145,15.1417621 146.132511,13.6518943 146.132511,16.7727753 C146.132511,18.0587665 144.760264,18.2940088 143.670308,18.2940088 C141.697977,18.1563731 139.800391,17.4840853 138.181322,16.3493392 C137.757885,16.1140969 137.397181,16.02 137.091366,16.3493392 L135.005551,19.3839648 C134.768312,19.6557461 134.768312,20.060994 135.005551,20.3327753 C137.289889,22.8315008 140.527977,24.2424631 143.913392,24.2142731 C148.226167,24.2142731 153.064317,21.6109251 153.064317,16.8747137 C153.056476,8.29621145 142.251013,10.5231718 142.251013,7.25330396 Z M165.688987,-1.89084859e-16 C159.008542,0.0129927978 153.601069,5.43450689 153.605397,12.1149627 C153.609731,18.7954185 159.024229,24.2099168 165.704685,24.2142503 C172.385141,24.2185786 177.806655,18.8111054 177.819648,12.1306608 C177.84069,8.90700465 176.569401,5.80928225 174.289883,3.52976456 C172.010365,1.25024688 168.912643,-0.0210428158 165.688987,-1.89084859e-16 L165.688987,-1.89084859e-16 Z M165.688987,17.627489 C164.256722,17.6177992 162.889336,17.0289185 161.898193,15.9949393 C160.90705,14.9609601 160.376517,13.569896 160.427401,12.1385022 C160.320992,10.1901742 161.299923,8.34253585 162.971717,7.33635024 C164.643512,6.33016462 166.734462,6.33016462 168.406256,7.33635024 C170.07805,8.34253585 171.056981,10.1901742 170.950573,12.1385022 C171.008121,13.5717125 170.479799,14.9666044 169.487226,16.002076 C168.494652,17.0375476 167.123349,17.6243813 165.688987,17.627489 L165.688987,17.627489 Z" id="Shape"></path>
            </g>
        </g>
    </g>
</svg>