<?xml version="1.0" encoding="UTF-8"?>
<svg width="287px" height="44px" viewBox="0 0 287 44" version="1.1" xmlns="http://www.w3.org/2000/svg" xmlns:xlink="http://www.w3.org/1999/xlink">
    <!-- Generator: Sketch 64 (93537) - https://sketch.com -->
    <title>Asset 1</title>
    <desc>Created with Sketch.</desc>
    <defs>
        <linearGradient x1="-85.1839746%" y1="90.4184398%" x2="401.755997%" y2="-77.6228918%" id="linearGradient-1">
            <stop stop-color="#7C3A75" offset="0%"></stop>
            <stop stop-color="#993D76" offset="7%"></stop>
            <stop stop-color="#CE4478" offset="21%"></stop>
            <stop stop-color="#EF4879" offset="32%"></stop>
            <stop stop-color="#FB4979" offset="38%"></stop>
            <stop stop-color="#FF7A72" offset="76%"></stop>
            <stop stop-color="#FFC66B" offset="100%"></stop>
        </linearGradient>
        <linearGradient x1="-268.018877%" y1="137.509532%" x2="556.824408%" y2="-88.0780008%" id="linearGradient-2">
            <stop stop-color="#7C3A75" offset="0%"></stop>
            <stop stop-color="#993D76" offset="7%"></stop>
            <stop stop-color="#CE4478" offset="21%"></stop>
            <stop stop-color="#EF4879" offset="32%"></stop>
            <stop stop-color="#FB4979" offset="38%"></stop>
            <stop stop-color="#FF7A72" offset="76%"></stop>
            <stop stop-color="#FFC66B" offset="100%"></stop>
        </linearGradient>
        <linearGradient x1="-245.680374%" y1="157.24856%" x2="375.616061%" y2="-78.2189328%" id="linearGradient-3">
            <stop stop-color="#7C3A75" offset="0%"></stop>
            <stop stop-color="#993D76" offset="7%"></stop>
            <stop stop-color="#CE4478" offset="21%"></stop>
            <stop stop-color="#EF4879" offset="32%"></stop>
            <stop stop-color="#FB4979" offset="38%"></stop>
            <stop stop-color="#FF7A72" offset="76%"></stop>
            <stop stop-color="#FFC66B" offset="100%"></stop>
        </linearGradient>
        <linearGradient x1="-369.075996%" y1="174.464672%" x2="399.740746%" y2="-51.3287801%" id="linearGradient-4">
            <stop stop-color="#7C3A75" offset="0%"></stop>
            <stop stop-color="#993D76" offset="7%"></stop>
            <stop stop-color="#CE4478" offset="21%"></stop>
            <stop stop-color="#EF4879" offset="32%"></stop>
            <stop stop-color="#FB4979" offset="38%"></stop>
            <stop stop-color="#FF7A72" offset="76%"></stop>
            <stop stop-color="#FFC66B" offset="100%"></stop>
        </linearGradient>
        <linearGradient x1="-514.28327%" y1="198.441266%" x2="365.98745%" y2="-27.6065089%" id="linearGradient-5">
            <stop stop-color="#7C3A75" offset="0%"></stop>
            <stop stop-color="#993D76" offset="7%"></stop>
            <stop stop-color="#CE4478" offset="21%"></stop>
            <stop stop-color="#EF4879" offset="32%"></stop>
            <stop stop-color="#FB4979" offset="38%"></stop>
            <stop stop-color="#FF7A72" offset="76%"></stop>
            <stop stop-color="#FFC66B" offset="100%"></stop>
        </linearGradient>
        <linearGradient x1="-326.72488%" y1="173.125142%" x2="175.778295%" y2="2.25579109%" id="linearGradient-6">
            <stop stop-color="#7C3A75" offset="0%"></stop>
            <stop stop-color="#993D76" offset="7%"></stop>
            <stop stop-color="#CE4478" offset="21%"></stop>
            <stop stop-color="#EF4879" offset="32%"></stop>
            <stop stop-color="#FB4979" offset="38%"></stop>
            <stop stop-color="#FF7A72" offset="76%"></stop>
            <stop stop-color="#FFC66B" offset="100%"></stop>
        </linearGradient>
        <linearGradient x1="-495.445677%" y1="239.497714%" x2="154.398175%" y2="13.7687768%" id="linearGradient-7">
            <stop stop-color="#7C3A75" offset="0%"></stop>
            <stop stop-color="#993D76" offset="7%"></stop>
            <stop stop-color="#CE4478" offset="21%"></stop>
            <stop stop-color="#EF4879" offset="32%"></stop>
            <stop stop-color="#FB4979" offset="38%"></stop>
            <stop stop-color="#FF7A72" offset="76%"></stop>
            <stop stop-color="#FFC66B" offset="100%"></stop>
        </linearGradient>
        <linearGradient x1="-742.977345%" y1="257.540783%" x2="108.212528%" y2="34.7757912%" id="linearGradient-8">
            <stop stop-color="#7C3A75" offset="0%"></stop>
            <stop stop-color="#993D76" offset="7%"></stop>
            <stop stop-color="#CE4478" offset="21%"></stop>
            <stop stop-color="#EF4879" offset="32%"></stop>
            <stop stop-color="#FB4979" offset="38%"></stop>
            <stop stop-color="#FF7A72" offset="76%"></stop>
            <stop stop-color="#FFC66B" offset="100%"></stop>
        </linearGradient>
        <linearGradient x1="-15.2963671%" y1="66.6347992%" x2="2431.64436%" y2="-557.265774%" id="linearGradient-9">
            <stop stop-color="#7C3A75" offset="0%"></stop>
            <stop stop-color="#993D76" offset="7%"></stop>
            <stop stop-color="#CE4478" offset="21%"></stop>
            <stop stop-color="#EF4879" offset="32%"></stop>
            <stop stop-color="#FB4979" offset="38%"></stop>
            <stop stop-color="#FF7A72" offset="76%"></stop>
            <stop stop-color="#FFC66B" offset="100%"></stop>
        </linearGradient>
        <linearGradient x1="-49.4263077%" y1="31.6224709%" x2="2433.51395%" y2="492.454017%" id="linearGradient-10">
            <stop stop-color="#7C3A75" offset="0%"></stop>
            <stop stop-color="#993D76" offset="7%"></stop>
            <stop stop-color="#CE4478" offset="21%"></stop>
            <stop stop-color="#EF4879" offset="32%"></stop>
            <stop stop-color="#FB4979" offset="38%"></stop>
            <stop stop-color="#FF7A72" offset="76%"></stop>
            <stop stop-color="#FFC66B" offset="100%"></stop>
        </linearGradient>
        <linearGradient x1="-80.4385101%" y1="16.1802073%" x2="2364.26136%" y2="649.174109%" id="linearGradient-11">
            <stop stop-color="#7C3A75" offset="0%"></stop>
            <stop stop-color="#993D76" offset="7%"></stop>
            <stop stop-color="#CE4478" offset="21%"></stop>
            <stop stop-color="#EF4879" offset="32%"></stop>
            <stop stop-color="#FB4979" offset="38%"></stop>
            <stop stop-color="#FF7A72" offset="76%"></stop>
            <stop stop-color="#FFC66B" offset="100%"></stop>
        </linearGradient>
        <linearGradient x1="-444.992179%" y1="176.188418%" x2="5649.20608%" y2="-1377.83601%" id="linearGradient-12">
            <stop stop-color="#7C3A75" offset="0%"></stop>
            <stop stop-color="#993D76" offset="7%"></stop>
            <stop stop-color="#CE4478" offset="21%"></stop>
            <stop stop-color="#EF4879" offset="32%"></stop>
            <stop stop-color="#FB4979" offset="38%"></stop>
            <stop stop-color="#FF7A72" offset="76%"></stop>
            <stop stop-color="#FFC66B" offset="100%"></stop>
        </linearGradient>
        <linearGradient x1="-184.256152%" y1="3.58926639%" x2="2292.91333%" y2="494.374439%" id="linearGradient-13">
            <stop stop-color="#7C3A75" offset="0%"></stop>
            <stop stop-color="#993D76" offset="7%"></stop>
            <stop stop-color="#CE4478" offset="21%"></stop>
            <stop stop-color="#EF4879" offset="32%"></stop>
            <stop stop-color="#FB4979" offset="38%"></stop>
            <stop stop-color="#FF7A72" offset="76%"></stop>
            <stop stop-color="#FFC66B" offset="100%"></stop>
        </linearGradient>
        <linearGradient x1="-221.893327%" y1="31.1851362%" x2="2297.37719%" y2="205.86992%" id="linearGradient-14">
            <stop stop-color="#7C3A75" offset="0%"></stop>
            <stop stop-color="#993D76" offset="7%"></stop>
            <stop stop-color="#CE4478" offset="21%"></stop>
            <stop stop-color="#EF4879" offset="32%"></stop>
            <stop stop-color="#FB4979" offset="38%"></stop>
            <stop stop-color="#FF7A72" offset="76%"></stop>
            <stop stop-color="#FFC66B" offset="100%"></stop>
        </linearGradient>
        <linearGradient x1="-767.368504%" y1="258.33005%" x2="5326.82975%" y2="-1295.45629%" id="linearGradient-15">
            <stop stop-color="#7C3A75" offset="0%"></stop>
            <stop stop-color="#993D76" offset="7%"></stop>
            <stop stop-color="#CE4478" offset="21%"></stop>
            <stop stop-color="#EF4879" offset="32%"></stop>
            <stop stop-color="#FB4979" offset="38%"></stop>
            <stop stop-color="#FF7A72" offset="76%"></stop>
            <stop stop-color="#FFC66B" offset="100%"></stop>
        </linearGradient>
        <linearGradient x1="-852.894505%" y1="280.268521%" x2="5269.76033%" y2="-1281.07949%" id="linearGradient-16">
            <stop stop-color="#7C3A75" offset="0%"></stop>
            <stop stop-color="#993D76" offset="7%"></stop>
            <stop stop-color="#CE4478" offset="21%"></stop>
            <stop stop-color="#EF4879" offset="32%"></stop>
            <stop stop-color="#FB4979" offset="38%"></stop>
            <stop stop-color="#FF7A72" offset="76%"></stop>
            <stop stop-color="#FFC66B" offset="100%"></stop>
        </linearGradient>
        <linearGradient x1="-742.083624%" y1="-586.468612%" x2="4183.75045%" y2="3372.09425%" id="linearGradient-17">
            <stop stop-color="#7C3A75" offset="0%"></stop>
            <stop stop-color="#993D76" offset="7%"></stop>
            <stop stop-color="#CE4478" offset="21%"></stop>
            <stop stop-color="#EF4879" offset="32%"></stop>
            <stop stop-color="#FB4979" offset="38%"></stop>
            <stop stop-color="#FF7A72" offset="76%"></stop>
            <stop stop-color="#FFC66B" offset="100%"></stop>
        </linearGradient>
    </defs>
    <g id="Symbols" stroke="none" stroke-width="1" fill="none" fill-rule="evenodd">
        <g id="Group-2" transform="translate(-472.000000, -593.000000)" fill-rule="nonzero">
            <g id="Asset-1">
                <g transform="translate(470.000000, 592.000000)">
                    <path d="M93.8619048,17.9947619 C93.8619048,26.7566667 87.717619,33.81 79.2842857,33.81 C75.9545342,33.843325 72.7681179,32.4572339 70.522381,29.9985714 L70.522381,43.8095238 C70.5351082,44.0572058 70.4422739,44.2986793 70.2669052,44.474048 C70.0915365,44.6494167 69.850063,44.742251 69.602381,44.7295238 L63.3595238,44.7295238 C63.1099975,44.7454899 62.8655368,44.6540902 62.6876912,44.4783368 C62.5098456,44.3025835 62.4155593,44.0592216 62.4285714,43.8095238 L62.4285714,3.78952381 C62.4155593,3.53982603 62.5098456,3.29646411 62.6876912,3.12071079 C62.8655368,2.94495747 63.1099975,2.85355771 63.3595238,2.86952381 L69,2.86952381 C69.2467789,2.8635568 69.4853732,2.95820575 69.660953,3.13171988 C69.8365328,3.305234 69.9339986,3.54269162 69.9309524,3.78952381 L70.0952381,6.57142857 C72.3556303,3.83101853 75.7102236,2.22786764 79.262381,2.19047619 C87.717619,2.19047619 93.8619048,9.2 93.8619048,17.9947619 Z M86.0528571,17.9947619 C86.0528571,13.197619 82.7671429,9.62714286 78.2985714,9.62714286 C73.83,9.62714286 70.6319048,13.4385714 70.6319048,17.9947619 C70.6319048,22.5509524 73.917619,26.4828571 78.2985714,26.4828571 C82.6795238,26.4828571 86.0528571,22.7919048 86.0528571,17.94 L86.0528571,17.9947619 Z" id="Shape" fill="url(#linearGradient-1)"></path>
                    <path d="M122.31619,20.9519048 L103.007143,20.9519048 C103.806667,24.9495238 106.873333,27.227619 111.615714,27.227619 C113.915011,27.2788715 116.16576,26.5620234 118.011905,25.1904762 C118.570476,24.8180952 118.931905,24.8180952 119.37,25.2452381 L122.075238,27.8957143 C122.502381,28.3228571 122.502381,28.7609524 122.009524,29.2538095 C119.04239,32.2216676 115.01283,33.8815941 110.81619,33.8647619 C106.562518,34.0164384 102.437193,32.3931834 99.4274811,29.3834713 C96.417769,26.3737591 94.794514,22.2484343 94.9461905,17.9947619 C94.9461905,9.1452381 101.408095,2.19047619 110.137143,2.19047619 C118.86619,2.19047619 124.47381,9.1452381 124.47381,17.3266667 C124.47381,19.7142857 124.167143,20.9519048 122.31619,20.9519048 Z M102.875714,15.6619048 L117.278095,15.6619048 C116.719524,11.412381 113.828095,9.09047619 110.202857,9.09047619 C106.577619,9.09047619 103.554762,11.412381 102.875714,15.6619048 Z" id="Shape" fill="url(#linearGradient-2)"></path>
                    <path d="M146.312857,5.07095238 L144.275714,9.38619048 C144.2035,9.6642148 144.009716,9.89482506 143.748286,10.01385 C143.486856,10.1328749 143.185682,10.1276113 142.928571,9.99952381 C142.11431,9.7195938 141.259602,9.5752925 140.398571,9.57238095 C138.678679,9.5290444 137.019659,10.2100616 135.826251,11.4492898 C134.632843,12.6885181 134.014784,14.3720067 134.122857,16.0890476 L134.122857,32.0795238 C134.138823,32.3290501 134.047423,32.5735108 133.87167,32.7513564 C133.695917,32.929202 133.452555,33.0234883 133.202857,33.0104762 L126.927143,33.0104762 C126.677445,33.0234883 126.434083,32.929202 126.25833,32.7513564 C126.082577,32.5735108 125.991177,32.3290501 126.007143,32.0795238 L126.007143,3.78952381 C125.990838,3.54088371 126.082518,3.29728457 126.258711,3.12109187 C126.434904,2.94489917 126.678503,2.85321929 126.927143,2.86952381 L132.89619,2.86952381 C133.142929,2.86020283 133.38239,2.95413454 133.556985,3.1287296 C133.73158,3.30332466 133.825511,3.54278511 133.81619,3.78952381 L133.936667,6.76857143 C135.535714,3.87714286 138.219048,2.66142857 141.844286,2.66142857 C143.322584,2.58490651 144.785018,2.99669732 146.00619,3.83333333 C146.419215,4.10014846 146.553519,4.64216204 146.312857,5.07095238 Z" id="Path" fill="url(#linearGradient-3)"></path>
                    <path d="M166.56381,22.7152381 C166.728063,22.5115185 166.975692,22.3930824 167.237381,22.3930824 C167.49907,22.3930824 167.746699,22.5115185 167.910952,22.7152381 L170.791429,27.1619048 C171.284286,27.9285714 171.218571,28.0271429 170.84619,28.4542857 C166.57881,33.3950057 159.669895,35.1263707 153.57687,32.781955 C147.483844,30.4375394 143.517367,24.5216463 143.662381,17.9947619 C143.447418,11.4802776 147.374439,5.54187197 153.453107,3.18931668 C159.531774,0.836761392 166.433391,2.58428627 170.66,7.54619048 C171.032381,7.97333333 170.922857,8.26904762 170.66,8.83857143 L167.779524,13.34 C167.352381,13.7671429 166.925238,13.712381 166.432381,13.2742857 C164.701905,11.7409524 162.051429,9.69285714 159.280476,9.69285714 C154.724286,9.69285714 151.52619,13.2633333 151.52619,17.9947619 C151.52619,22.7261905 154.669524,26.2857143 159.225714,26.2857143 C162.095238,26.2857143 164.833333,24.2595238 166.56381,22.7152381 Z" id="Path" fill="url(#linearGradient-4)"></path>
                    <path d="M201.907143,3.78952381 L201.907143,32.0795238 C201.923109,32.3290501 201.831709,32.5735108 201.655956,32.7513564 C201.480203,32.929202 201.236841,33.0234883 200.987143,33.0104762 L195.335714,33.0104762 C195.087912,33.0134442 194.849393,32.9163154 194.674158,32.7410804 C194.498923,32.5658455 194.401794,32.3273257 194.404762,32.0795238 L194.16381,29.5057143 C191.942517,32.2318143 188.611735,33.812729 185.095238,33.8100035 C176.661905,33.8100035 170.517619,26.7895238 170.517619,17.9947619 C170.517619,9.2 176.629048,2.19047619 185.095238,2.19047619 C188.643551,2.23108299 191.993496,3.83392771 194.251429,6.57142857 L194.437619,3.74571429 C194.434573,3.4988821 194.532039,3.26142448 194.707618,3.08791035 C194.883198,2.91439623 195.121793,2.81974727 195.368571,2.82571429 L201.02,2.82571429 C201.271404,2.81769409 201.513853,2.91947268 201.6842,3.10454063 C201.854546,3.28960858 201.935926,3.53964456 201.907143,3.78952381 Z M193.736667,17.94 C193.736667,13.3838095 190.450952,9.57238095 186.07,9.57238095 C181.689048,9.57238095 178.326667,13.1428571 178.326667,17.94 C178.326667,22.7371429 181.612381,26.4280952 186.07,26.4280952 C190.527619,26.4280952 193.736667,22.4852381 193.736667,17.94 Z" id="Shape" fill="url(#linearGradient-5)"></path>
                    <path d="M234.917619,3.91 L218.981905,43.9519048 C218.825292,44.4177872 218.3775,44.7222859 217.886667,44.6966667 L211.731429,44.6966667 C211.063333,44.6966667 210.690952,44.3242857 210.997619,43.6014286 L215.378571,33.0214286 L203.714286,3.91 C203.473333,3.23095238 203.78,2.86952381 204.459048,2.86952381 L210.789524,2.86952381 C211.277423,2.8424124 211.724259,3.14179247 211.884762,3.60333333 L219.266667,23.5366667 L226.59381,3.60333333 C226.754312,3.14179247 227.201148,2.8424124 227.689048,2.86952381 L234.14,2.86952381 C234.851905,2.86952381 235.158571,3.28571429 234.917619,3.91 Z" id="Path" fill="url(#linearGradient-6)"></path>
                    <path d="M256.756667,24.5771429 C256.756667,30.4257143 250.787619,33.810132 245.245714,33.810132 C240.871048,33.8280545 236.693107,31.9937394 233.745714,28.7609524 C233.438249,28.4098635 233.438249,27.8853746 233.745714,27.5342857 L236.144286,24.15 C236.516667,23.6571429 236.94381,23.777619 237.502381,24.2157143 C239.69797,25.8152684 242.296018,26.7710467 245.004762,26.9757143 C246.97619,26.9757143 248.881905,26.362381 248.881905,24.4566667 C248.881905,19.6595238 234.304286,21.5104762 234.304286,11.3138095 C234.304286,5.53095238 239.342381,2.14666667 244.752857,2.14666667 C248.694412,2.10616857 252.462169,3.76653584 255.091905,6.70285714 C255.414859,7.07930382 255.385959,7.6428505 255.02619,7.98428571 L252.693333,11.0619048 C252.320952,11.5547619 251.89381,11.4342857 251.335238,11.0071429 C249.002381,9.50666667 247.589524,8.76190476 245.431905,8.76190476 C243.52619,8.76190476 242.14619,9.85714286 242.14619,11.3466667 C242.113333,16.2204762 256.756667,13.5042857 256.756667,24.5771429 Z" id="Path" fill="url(#linearGradient-7)"></path>
                    <path d="M257.063333,17.9947619 C256.912922,12.3143701 259.857424,6.9999015 264.753249,4.11539618 C269.649074,1.23089085 275.724736,1.23089085 280.620561,4.11539618 C285.516386,6.9999015 288.460887,12.3143701 288.310476,17.9947619 C288.460887,23.6751537 285.516386,28.9896223 280.620561,31.8741276 C275.724736,34.758633 269.649074,34.758633 264.753249,31.8741276 C259.857424,28.9896223 256.912922,23.6751537 257.063333,17.9947619 L257.063333,17.9947619 Z M280.490476,17.9947619 C280.597668,15.8527254 279.830189,13.7590239 278.364016,12.1937293 C276.897843,10.6284347 274.858749,9.72582302 272.714286,9.69285714 C268.333333,9.69285714 264.905238,13.1428571 264.905238,17.9947619 C264.905238,22.8466667 268.333333,26.2857143 272.714286,26.2857143 C277.095238,26.2857143 280.490476,22.857619 280.490476,17.9947619 L280.490476,17.9947619 Z" id="Shape" fill="url(#linearGradient-8)"></path>
                    <circle id="Oval" fill="url(#linearGradient-9)" cx="7.91857143" cy="39.187619" r="5.72809524"></circle>
                    <circle id="Oval" fill="url(#linearGradient-10)" transform="translate(7.919447, 23.571239) rotate(-24.820000) translate(-7.919447, -23.571239) " cx="7.91944729" cy="23.5712387" r="5.72809524"></circle>
                    <circle id="Oval" fill="url(#linearGradient-11)" transform="translate(7.921482, 7.958086) rotate(-28.820000) translate(-7.921482, -7.958086) " cx="7.92148246" cy="7.9580858" r="5.72809524"></circle>
                    <path d="M24.2047619,36.8875928 C23.2735149,36.8831845 22.4314959,37.4407411 22.0720461,38.2998317 C21.7125964,39.1589222 21.906662,40.1499842 22.5635871,40.8100525 C23.2205122,41.4701207 24.2106366,41.6689147 25.071433,41.3135697 C25.9322295,40.9582247 26.4938095,40.1188766 26.4938095,39.187619 C26.4938095,37.921629 25.4707376,36.8936476 24.2047619,36.8875928 Z" id="Path" fill="url(#linearGradient-12)"></path>
                    <circle id="Oval" fill="url(#linearGradient-13)" transform="translate(24.201591, 23.570135) rotate(-25.510000) translate(-24.201591, -23.570135) " cx="24.2015913" cy="23.5701355" r="5.72809524"></circle>
                    <circle id="Oval" fill="url(#linearGradient-14)" transform="translate(24.203529, 7.954805) rotate(-18.270000) translate(-24.203529, -7.954805) " cx="24.2035289" cy="7.95480472" r="5.72809524"></circle>
                    <path d="M39.9980952,36.8875928 C39.0668482,36.8831845 38.2248292,37.4407411 37.8653795,38.2998317 C37.5059297,39.1589222 37.6999953,40.1499842 38.3569204,40.8100525 C39.0138455,41.4701207 40.0039699,41.6689147 40.8647664,41.3135697 C41.7255628,40.9582247 42.2871429,40.1188766 42.2871429,39.187619 C42.2871429,37.921629 41.2640709,36.8936476 39.9980952,36.8875928 Z" id="Path" fill="url(#linearGradient-15)"></path>
                    <path d="M40.4033333,25.8257143 C41.3144197,25.6599371 42.0358675,24.9615437 42.2311365,24.0563197 C42.4264055,23.1510958 42.0570223,22.2173954 41.2952965,21.6907701 C40.5335707,21.1641449 39.5295831,21.1483544 38.7516729,21.6507647 C37.9737627,22.153175 37.5751995,23.0747973 37.7419048,23.9857143 C37.9693212,25.2283716 39.1604449,26.0518646 40.4033333,25.8257143 Z" id="Path" fill="url(#linearGradient-16)"></path>
                    <circle id="Oval" fill="url(#linearGradient-17)" transform="translate(39.992739, 7.955211) rotate(-53.090000) translate(-39.992739, -7.955211) " cx="39.9927392" cy="7.95521103" r="2.28904762"></circle>
                </g>
            </g>
        </g>
    </g>
</svg>