<?xml version="1.0" encoding="UTF-8"?>
<svg width="178px" height="49px" viewBox="0 0 178 49" version="1.1" xmlns="http://www.w3.org/2000/svg" xmlns:xlink="http://www.w3.org/1999/xlink">
    <!-- Generator: Sketch 64 (93537) - https://sketch.com -->
    <title>Asset 1</title>
    <desc>Created with Sketch.</desc>
    <g id="Page-1" stroke="none" stroke-width="1" fill="none" fill-rule="evenodd">
        <g id="Community-V1" transform="translate(-761.000000, -6333.000000)" fill="#FFFFFF" fill-rule="nonzero">
            <g id="Asset-1" transform="translate(761.000000, 6333.000000)">
                <path d="M18.0942242,40.6414966 C18.1537745,40.5684676 18.2430097,40.5260908 18.3372406,40.5260908 C18.4314716,40.5260908 18.5207068,40.5684676 18.580257,40.6414966 L20.1481048,42.1387912 C20.2104207,42.1979912 20.2457037,42.2801761 20.2457037,42.3661291 C20.2457037,42.4520821 20.2104207,42.534267 20.1481048,42.593467 C19.0895949,43.7998099 17.5589711,44.4864449 15.954112,44.4748843 C13.4265713,44.4744724 11.2262419,42.7476758 10.6250355,40.2926782 C10.0238291,37.8376805 11.1772743,35.2895753 13.4186162,34.1213078 C15.6599581,32.9530403 18.4093747,33.4668344 20.0775517,35.3656888 C20.1398676,35.4248889 20.1751505,35.5070737 20.1751505,35.5930267 C20.1751505,35.6789798 20.1398676,35.7611646 20.0775517,35.8203647 L18.5097039,37.341177 C18.3607584,37.4901225 18.2039736,37.4744441 18.0315103,37.341177 C17.5086287,36.824642 16.8065992,36.5297896 16.0717006,36.5180569 C15.4177525,36.4978008 14.7849242,36.7508774 14.3252759,37.2164759 C13.8656276,37.6820743 13.6207108,38.3181051 13.6493758,38.9717387 C13.6192366,39.6315473 13.8615969,40.2747441 14.3196594,40.7505955 C14.777722,41.2264469 15.4112228,41.4931253 16.0717006,41.4881343 C16.828009,41.4686846 17.5495954,41.1666252 18.0942242,40.6414966 L18.0942242,40.6414966 Z M19.9991593,39.0109349 C19.9832797,36.7516598 21.3328527,34.7062924 23.4162254,33.8321448 C25.4995982,32.9579972 27.9045842,33.4280156 29.5055559,35.0222131 C31.1065276,36.6164106 31.5867396,39.019382 30.7214338,41.1064426 C29.8561281,43.1935032 27.8165017,44.551737 25.5571796,44.5455266 C24.0846322,44.553794 22.6696402,43.9741359 21.62617,42.9350808 C20.5826997,41.8960258 19.9970468,40.4835044 19.9991593,39.0109349 L19.9991593,39.0109349 Z M27.9795044,39.0109349 C27.9153212,37.6903389 26.8040549,36.6651603 25.4825763,36.7074391 C24.1610977,36.7497179 23.1176352,37.843834 23.137998,39.1658319 C23.1583608,40.4878299 24.2350257,41.5492895 25.5571796,41.5508483 C26.2198113,41.5493869 26.853111,41.2774057 27.3104319,40.7978847 C27.7677529,40.3183637 28.0094314,39.672892 27.9795044,39.0109349 Z M49.2788247,38.0388693 L49.2788247,44.00453 C49.2810104,44.0918354 49.2467899,44.1761421 49.1842948,44.2371492 C49.1217997,44.2981563 49.0366931,44.3303357 48.9494683,44.3259388 L46.3311625,44.3259388 C46.2439377,44.3303357 46.158831,44.2981563 46.096336,44.2371492 C46.0338409,44.1761421 45.9996203,44.0918354 46.0019145,44.00453 L46.0019145,38.6895261 C46.0019145,36.9727328 45.0455273,36.4710215 44.1753718,36.4710215 C43.116518,36.4322501 42.2085799,37.2202719 42.0979735,38.2740464 L42.0979735,44.00453 C42.1002677,44.0918354 42.0660471,44.1761421 42.003552,44.2371492 C41.941057,44.2981563 41.8559503,44.3303357 41.7687255,44.3259388 L39.1504197,44.3259388 C39.0638578,44.3305044 38.9794265,44.2981105 38.9181329,44.2368168 C38.8568393,44.1755232 38.8244454,44.091092 38.8290109,44.00453 L38.8290109,38.6895261 C38.8290109,36.9727328 37.8647846,36.4710215 36.9946291,36.4710215 C35.9149182,36.5119733 35.029574,37.3405218 34.9172308,38.4151527 L34.9172308,43.9966908 C34.9217963,44.0832527 34.8894024,44.167684 34.8281088,44.2289776 C34.7668152,44.2902712 34.6823839,44.3226651 34.595822,44.3180996 L31.9775162,44.3180996 C31.8902914,44.3224965 31.8051847,44.290317 31.7426897,44.2293099 C31.6801946,44.1683028 31.645974,44.0839962 31.6482682,43.9966908 L31.6482682,34.025179 C31.6437134,33.936539 31.6769368,33.8501208 31.7396974,33.7873602 C31.8024581,33.7245995 31.8888762,33.6913762 31.9775162,33.6959309 L34.4939119,33.6959309 C34.5812173,33.6936368 34.6655239,33.7278574 34.726531,33.7903525 C34.7875381,33.8528475 34.8197176,33.9379542 34.8153207,34.025179 L34.9015523,35.3656888 C35.5750433,34.1794323 36.8378004,33.4505726 38.2018718,33.4607538 C39.5606313,33.4407148 40.8152772,34.1862291 41.4473167,35.3892065 C42.2759279,34.154697 43.6766706,33.4277293 45.1631159,33.4607538 C47.5540838,33.4607538 49.2788247,35.1932256 49.2788247,38.0388693 Z M67.7402321,38.0388693 L67.7402321,44.00453 C67.7424179,44.0918354 67.7081973,44.1761421 67.6457022,44.2371492 C67.5832072,44.2981563 67.4981005,44.3303357 67.4108757,44.3259388 L64.7925699,44.3259388 C64.7053451,44.3303357 64.6202385,44.2981563 64.5577434,44.2371492 C64.4952483,44.1761421 64.4610278,44.0918354 64.4633219,44.00453 L64.4633219,38.6895261 C64.4633219,36.9727328 63.5069348,36.4710215 62.62894,36.4710215 C61.5730563,36.4364599 60.6698043,37.2233839 60.559381,38.2740464 L60.559381,44.00453 C60.5616751,44.0918354 60.5274545,44.1761421 60.4649595,44.2371492 C60.4024644,44.2981563 60.3173578,44.3303357 60.2301329,44.3259388 L57.6118272,44.3259388 C57.5246024,44.3303357 57.4394957,44.2981563 57.3770006,44.2371492 C57.3145056,44.1761421 57.280285,44.0918354 57.2825791,44.00453 L57.2825791,38.6895261 C57.2825791,36.9727328 56.326192,36.4710215 55.4560365,36.4710215 C54.3763257,36.5119733 53.4909815,37.3405218 53.3786382,38.4151527 L53.3786382,43.9966908 C53.3832038,44.0832527 53.3508099,44.167684 53.2895162,44.2289776 C53.2282226,44.2902712 53.1437914,44.3226651 53.0572294,44.3180996 L50.4389236,44.3180996 C50.351048,44.3250104 50.2644657,44.2936569 50.20139,44.2320831 C50.1383143,44.1705092 50.1048839,44.0847074 50.1096756,43.9966908 L50.1096756,34.025179 C50.1024936,33.935848 50.1348683,33.8478643 50.1982386,33.784494 C50.2616089,33.7211236 50.3495927,33.6887489 50.4389236,33.6959309 L52.9631585,33.6959309 C53.1449972,33.6959309 53.2924066,33.8433403 53.2924066,34.025179 L53.3786382,35.3656888 C54.0521293,34.1794323 55.3148863,33.4505726 56.6789578,33.4607538 C58.0377172,33.4407148 59.2923631,34.1862291 59.9244026,35.3892065 C60.750495,34.1559484 62.1483332,33.4289543 63.6323626,33.4607538 C66.0154912,33.4607538 67.7402321,35.1932256 67.7402321,38.0388693 Z M78.9110391,34.025179 L78.9110391,44.00453 C78.9133332,44.0918354 78.8791126,44.1761421 78.8166176,44.2371492 C78.7541225,44.2981563 78.6690158,44.3303357 78.581791,44.3259388 L76.0418777,44.3259388 C75.9559863,44.3281143 75.8729646,44.2949508 75.8122107,44.2341969 C75.7514569,44.1734431 75.7182933,44.0904214 75.7204689,44.00453 L75.626398,42.8521619 C74.9372993,43.921549 73.7625591,44.5794035 72.4907025,44.6081514 C70.1389308,44.6081514 68.4142983,42.8756796 68.4142983,40.0300359 L68.4142983,34.025179 C68.4073874,33.9373034 68.4387409,33.850721 68.5003148,33.7876454 C68.5618887,33.7245697 68.6476905,33.6911393 68.7357071,33.6959309 L71.3540128,33.6959309 C71.4426529,33.6913762 71.529071,33.7245995 71.5918316,33.7873602 C71.6545923,33.8501208 71.6878157,33.936539 71.6832609,34.025179 L71.6832609,39.3793791 C71.6832609,41.0961724 72.7337189,41.574366 73.5646782,41.574366 C74.0854934,41.5998975 74.5944495,41.413433 74.975504,41.0574868 C75.3565586,40.7015405 75.5772289,40.2064546 75.5872018,39.6851094 L75.5872018,34.025179 C75.5852727,33.9299137 75.6267649,33.8389395 75.6999648,33.7779397 C75.7731646,33.7169398 75.8701296,33.6925329 75.9634853,33.7116094 L78.581791,33.7116094 C78.6676365,33.7073117 78.7514828,33.7384412 78.8137246,33.7977192 C78.8759665,33.8569971 78.9111474,33.939226 78.9110391,34.025179 Z M90.1917037,38.0388693 L90.1917037,44.00453 C90.1939979,44.0918354 90.1597773,44.1761421 90.0972822,44.2371492 C90.0347872,44.2981563 89.9496805,44.3303357 89.8624557,44.3259388 L87.2441499,44.3259388 C87.1569251,44.3303357 87.0718185,44.2981563 87.0093234,44.2371492 C86.9468283,44.1761421 86.9126078,44.0918354 86.9149019,44.00453 L86.9149019,38.6895261 C86.9149019,36.9727328 85.9585148,36.4710215 85.0883593,36.4710215 C84.0086484,36.5119733 83.1233042,37.3405218 83.010961,38.4151527 L83.010961,43.9966908 C83.0155265,44.0832527 82.9831326,44.167684 82.921839,44.2289776 C82.8605454,44.2902712 82.7761142,44.3226651 82.6895522,44.3180996 L80.0634072,44.3180996 C79.9768452,44.3226651 79.892414,44.2902712 79.8311204,44.2289776 C79.7698267,44.167684 79.7374328,44.0832527 79.7419984,43.9966908 L79.7419984,34.025179 C79.7350875,33.9373034 79.766441,33.850721 79.8280149,33.7876454 C79.8895888,33.7245697 79.9753906,33.6911393 80.0634072,33.6959309 L82.5954813,33.6959309 C82.77732,33.6959309 82.9247294,33.8433403 82.9247294,34.025179 L83.010961,35.3656888 C83.6818539,34.1806767 84.9417255,33.451751 86.3034413,33.4606713 C88.4670712,33.4606713 90.1917037,35.1932256 90.1917037,38.0388693 Z M91.0226631,30.0977203 C91.0163096,29.3885553 91.439031,28.7458228 92.0927081,28.470756 C92.7463852,28.1956892 93.5014723,28.3428007 94.0040786,28.843143 C94.5066848,29.3434853 94.6572038,30.0979006 94.385091,30.7528128 C94.1129781,31.4077251 93.4721606,31.8333439 92.7629741,31.8302099 C92.3021372,31.8322774 91.8594597,31.6506706 91.5328607,31.3255428 C91.2062618,31.000415 91.0226583,30.5585619 91.0226631,30.0977203 L91.0226631,30.0977203 Z M91.4538212,33.6959309 L94.072127,33.6959309 C94.160767,33.6913762 94.2471851,33.7245995 94.3099458,33.7873602 C94.3727064,33.8501208 94.4059298,33.936539 94.401375,34.025179 L94.401375,44.00453 C94.4036691,44.0918354 94.3694486,44.1761421 94.3069535,44.2371492 C94.2444584,44.2981563 94.1593518,44.3303357 94.072127,44.3259388 L91.4538212,44.3259388 C91.3672592,44.3305044 91.282828,44.2981105 91.2215344,44.2368168 C91.1602407,44.1755232 91.1278468,44.091092 91.1324124,44.00453 L91.1324124,34.025179 C91.1301125,33.9399509 91.1635058,33.8576339 91.2245327,33.7980955 C91.2855596,33.738557 91.3686759,33.7072061 91.4538212,33.7116094 L91.4538212,33.6959309 Z M101.997597,34.025179 L101.997597,35.9928279 C102.002152,36.0814679 101.968929,36.1678861 101.906168,36.2306467 C101.843408,36.2934074 101.756989,36.3266308 101.668349,36.322076 L99.9201991,36.322076 L99.9201991,44.00453 C99.9247647,44.091092 99.8923708,44.1755232 99.8310772,44.2368168 C99.7697835,44.2981105 99.6853523,44.3305044 99.5987903,44.3259388 L96.9804846,44.3259388 C96.8932598,44.3303357 96.8081531,44.2981563 96.745658,44.2371492 C96.683163,44.1761421 96.6489424,44.0918354 96.6512365,44.00453 L96.6512365,36.322076 L94.9030863,36.322076 C94.8144463,36.3266308 94.7280281,36.2934074 94.6652675,36.2306467 C94.6025068,36.1678861 94.5692835,36.0814679 94.5738383,35.9928279 L94.5738383,34.025179 C94.5692835,33.936539 94.6025068,33.8501208 94.6652675,33.7873602 C94.7280281,33.7245995 94.8144463,33.6913762 94.9030863,33.6959309 L96.6512365,33.6959309 L96.6512365,30.7718949 C96.6466817,30.6832549 96.6799051,30.5968367 96.7426658,30.5340761 C96.8054264,30.4713154 96.8918446,30.438092 96.9804846,30.4426468 L99.5987903,30.4426468 C99.6868069,30.4378552 99.7726088,30.4712856 99.8341826,30.5343612 C99.8957565,30.5974369 99.92711,30.6840193 99.9201991,30.7718949 L99.9201991,33.7116094 L101.668349,33.7116094 C101.754195,33.7073117 101.838041,33.7384412 101.900283,33.7977192 C101.962525,33.8569971 101.997705,33.939226 101.997597,34.025179 L101.997597,34.025179 Z M113.207709,34.0643752 L107.555618,48.1750051 C107.496803,48.3386283 107.337226,48.4439493 107.163656,48.4336999 L104.615903,48.4336999 C104.372887,48.4336999 104.223941,48.3004329 104.349369,48.0652557 L105.917217,44.333778 L101.793777,34.0486967 C101.707546,33.8135195 101.793777,33.6802525 102.052472,33.6802525 L104.694296,33.6802525 C104.867166,33.6725737 105.025355,33.7769784 105.086258,33.9389474 L107.485065,40.492551 L109.891711,33.9389474 C109.950525,33.7753242 110.110103,33.6700031 110.283673,33.6802525 L112.964693,33.6802525 C113.19203,33.7116094 113.293941,33.829198 113.207709,34.0643752 Z M13.1711823,0.0499178966 C10.541063,0.0165800067 8.05551084,1.25060415 6.49215077,3.36591592 L6.27265208,1.23364296 C6.27489996,1.04102099 6.19828893,0.855856093 6.06060291,0.721131056 C5.92291688,0.586406019 5.73613047,0.513837941 5.54360287,0.520272226 L0.714631754,0.520272226 C0.522122558,0.508712944 0.33387983,0.580151573 0.197510098,0.716521304 C0.0611403669,0.852891036 -0.0102982617,1.04113376 0.00126102037,1.23364296 L0.00126102037,32.0340123 C-0.0105534562,32.2258995 0.0610863641,32.4135386 0.197777002,32.5487271 C0.334467641,32.6839157 0.522886827,32.7534778 0.714631754,32.7395438 L6.3980799,32.7395438 C6.58915184,32.7508954 6.77604222,32.6804924 6.9121344,32.5458957 C7.04822658,32.4112991 7.12069027,32.225198 7.11145064,32.0340123 L7.11145064,21.6548601 C8.70464595,23.2719695 10.9024429,24.1476764 13.1711823,24.0693457 C19.662072,24.0693457 24.3969723,18.8092164 24.3969723,12.1772204 C24.3969723,5.40411802 19.662072,0.0499178966 13.1711823,0.0499178966 Z M12.3167052,17.5784559 C9.18100969,17.5784559 7.11145064,15.3050767 7.11145064,12.0909887 C7.11145064,8.87690082 9.18884893,6.50161145 12.3167052,6.50161145 C15.4445615,6.50161145 17.5768345,8.77499071 17.5768345,12.0909887 C17.671858,13.5336477 17.1561379,14.9498162 16.155662,15.9935318 C15.155186,17.0372473 13.7620919,17.6123902 12.3167052,17.5784559 Z M48.9024328,11.6127952 C48.9024328,5.34140411 44.5908515,0.0497296124 37.8647846,0.0497296124 C34.7009955,0.0319793361 31.6648988,1.29652055 29.4492466,3.55500865 C27.2335945,5.81349674 26.0274156,8.87324844 26.1059263,12.0361141 C26.1059263,18.7151455 31.1308784,24.0694863 38.4292098,24.0694863 C41.662541,24.0849197 44.7676915,22.8061623 47.0523725,20.5181705 C47.2185177,20.4030534 47.3250414,20.2201692 47.3432049,20.0188578 C47.3613683,19.8175464 47.2893001,19.6185487 47.1464433,19.4755517 L44.6770831,17.1237801 C44.5586751,16.9621999 44.3765268,16.8593108 44.177016,16.8413098 C43.9775051,16.8233088 43.779882,16.8919328 43.6344643,17.0297092 C42.3103661,17.9368625 40.739722,18.4157174 39.1347413,18.401576 C35.9990457,18.401576 33.874612,17.0767446 33.1690805,14.560349 L47.2797104,14.560349 C48.6672557,14.5446705 48.9024328,13.5490872 48.9024328,11.6127952 Z M33.0358134,10.0449474 C33.3853349,7.65656324 35.5020147,5.93123099 37.91182,6.07045332 C40.2799886,5.95492704 42.3341553,7.6906979 42.6153633,10.0449474 L33.0358134,10.0449474 Z M50.9563134,23.7400976 L56.6397616,23.7400976 C56.8322708,23.7516569 57.0205135,23.6802183 57.1568832,23.5438486 C57.2932529,23.4074788 57.3646916,23.2192361 57.3531323,23.0267269 L57.3531323,11.4716889 C57.3531323,8.62604518 59.1091218,6.44673678 62.0566756,6.44673678 C62.7214139,6.46058517 63.3789066,6.58784184 64.0008068,6.82302024 C64.5730713,6.96412654 64.9963901,6.87005568 65.1845319,6.30563048 L66.7523796,2.22922629 C66.9325212,1.86845321 66.830454,1.43055202 66.5093632,1.18660753 C65.6160286,0.416968061 64.4744069,-0.00348285619 63.2952753,0.00281123454 C60.4574709,0.00281123454 58.5133396,1.6648011 57.3296146,3.92250188 L57.1414728,1.21796448 C57.1372343,0.83440908 56.827336,0.524510794 56.4437806,0.520272226 L50.9563134,0.520272226 C50.7644863,0.511229792 50.5777363,0.583480126 50.4419434,0.719272968 C50.3061506,0.855065811 50.2339002,1.04181589 50.2429427,1.23364296 L50.2429427,23.0267269 C50.2313834,23.2192361 50.302822,23.4074788 50.4391918,23.5438486 C50.5755615,23.6802183 50.7638042,23.7516569 50.9563134,23.7400976 L50.9563134,23.7400976 Z M76.6376598,24.0695604 C80.1258619,24.0902501 83.4485117,22.5836003 85.7311769,19.945906 C85.8608337,19.8095041 85.9291366,19.6260532 85.9202556,19.4380705 C85.9113745,19.2500878 85.8260804,19.0738933 85.6841414,18.9503227 L82.3132687,15.6813601 C82.185216,15.5252043 81.9939053,15.4346757 81.7919593,15.4346757 C81.5900134,15.4346757 81.3987027,15.5252043 81.27065,15.6813601 C80.0727129,16.8264869 78.4829675,17.4713572 76.8258015,17.4843851 C75.3890197,17.4902243 74.0127603,16.9063358 73.0185063,15.8691111 C72.0242523,14.8318863 71.4990825,13.4321677 71.5656723,11.9969179 C71.5160924,10.5779563 72.050933,9.20080765 73.0452247,8.18725247 C74.0395164,7.17369729 75.4061499,6.6125326 76.8258015,6.63487851 C78.4274842,6.65946318 79.9568102,7.30605324 81.0903475,8.43790344 C81.4666309,8.76715147 81.8037182,8.81418691 82.1329662,8.48493888 L85.5430351,5.16894085 C85.6849741,5.04537025 85.7702682,4.86917581 85.7791493,4.68119311 C85.7880303,4.49321041 85.7197274,4.30975942 85.5900706,4.17335752 C82.342025,0.404946292 77.087391,-0.935964805 72.4308015,0.81529112 C67.774212,2.56654705 64.7054043,7.03774834 64.7455345,12.0125963 C64.6992664,15.1997243 65.9352195,18.2718497 68.1757912,20.5389544 C70.4163629,22.8060592 73.4737257,24.0780917 76.6611775,24.0695604 L76.6376598,24.0695604 Z M108.896128,0.551629182 L104.067156,0.551629182 C103.877316,0.549507864 103.694633,0.623984963 103.560387,0.758230529 C103.426142,0.892476095 103.351664,1.07515987 103.353786,1.26499992 L103.118609,3.39727288 C101.566833,1.27689508 99.0905785,0.0314763339 96.4630948,0.0497159284 C89.9722051,0.0497159284 85.2373048,5.40411802 85.2373048,12.1772204 C85.2373048,18.8092164 89.9408481,24.0693457 96.4630948,24.0693457 C99.0287941,24.162071 101.487515,23.037337 103.095091,21.0355602 L103.377303,23.0267269 C103.372972,23.2172193 103.446739,23.4011953 103.581473,23.5359286 C103.716206,23.6706619 103.900182,23.7444287 104.090674,23.7400976 L108.919645,23.7400976 C109.112155,23.7516569 109.300397,23.6802183 109.436767,23.5438486 C109.573137,23.4074788 109.644575,23.2192361 109.633016,23.0267269 L109.633016,1.23364296 C109.644575,1.04113376 109.573137,0.852891036 109.436767,0.716521304 C109.300397,0.580151573 109.112155,0.508712944 108.919645,0.520272226 L108.896128,0.551629182 Z M97.2940541,17.6098129 C95.8486674,17.6437471 94.4555733,17.0686043 93.4550974,16.0248887 C92.4546215,14.9811732 91.9389014,13.5650046 92.0339249,12.1223457 C92.0339249,8.80634767 94.2602687,6.53296841 97.2940541,6.53296841 C100.32784,6.53296841 102.507148,8.9944894 102.507148,12.1223457 C102.507148,15.250202 100.445428,17.5784559 97.3175718,17.5784559 L97.2940541,17.6098129 Z M120.380612,23.81849 L117.041097,31.9321022 C116.758884,32.4573312 117.088132,32.7160261 117.613361,32.7160261 L123.155703,32.7160261 C123.532806,32.7331464 123.877936,32.5051703 124.01018,32.1516009 L136.278589,1.32771383 C136.466731,0.810324063 136.231553,0.543789943 135.714164,0.543789943 L129.88177,0.543789943 C129.504038,0.532759814 129.160899,0.762568227 129.027293,1.11605438 L123.861235,15.3991475 L118.608944,1.09253666 C118.477326,0.737477435 118.132897,0.506805012 117.754467,0.520272226 L112.023984,0.520272226 C111.498755,0.520272226 111.24006,0.810324063 111.451719,1.30419611 L120.380612,23.81849 Z M142.212893,7.25417838 C142.212893,6.4702545 142.871389,5.63929518 144.29813,5.63929518 C145.724872,5.63929518 146.712616,6.21155962 148.515641,7.25417838 C148.93896,7.53639098 149.299565,7.67749728 149.558259,7.30121381 L151.682693,4.50260555 C151.962048,4.23670249 151.98277,3.79807784 151.729729,3.50702222 C149.653499,1.21010086 146.680142,-0.0691007086 143.584759,0.00288246361 C139.414284,0.00288246361 135.384916,2.60550975 135.384916,7.30121381 C135.384916,15.1404526 146.093316,13.6509973 146.093316,16.7710143 C146.093316,18.0566495 144.721449,18.2918267 143.631795,18.2918267 C141.66001,18.1542291 139.762949,17.4821274 138.144328,16.3476954 C137.721009,16.1125183 137.360404,16.0184474 137.054673,16.3476954 L134.969436,19.3814808 C134.732263,19.6531869 134.732263,20.0583227 134.969436,20.3300287 C137.253142,22.8280624 140.490333,24.2386341 143.874811,24.210452 C148.186393,24.210452 153.023203,21.6078247 153.023203,16.8729244 C153.015364,8.29679714 142.212893,10.523141 142.212893,7.25417838 Z M165.644377,0.00288246361 C158.965782,0.0158716644 153.559806,5.43588483 153.564133,12.1144912 C153.568466,18.7930976 158.981465,24.2060968 165.660071,24.2104291 C172.338678,24.2147563 177.758691,18.8087801 177.77168,12.1301849 C177.792717,8.90742125 176.521779,5.81055643 174.242893,3.53166983 C171.964006,1.25278322 168.867141,-0.0181545266 165.644377,0.00288246361 L165.644377,0.00288246361 Z M165.644377,17.6254914 C164.212509,17.6158042 162.845502,17.0270866 161.854633,15.9933936 C160.863765,14.9597007 160.333379,13.5690217 160.384248,12.1380242 C160.277869,10.1902355 161.256529,8.34310872 162.92786,7.33720166 C164.599192,6.33129461 166.689563,6.33129461 168.360895,7.33720166 C170.032226,8.34310872 171.010886,10.1902355 170.904507,12.1380242 C170.962039,13.5708377 170.433864,14.9653434 169.441565,16.0005283 C168.449266,17.0357133 167.078342,17.6223845 165.644377,17.6254914 L165.644377,17.6254914 Z" id="Shape"></path>
            </g>
        </g>
    </g>
</svg>